<svg width="40" height="40" viewBox="0 0 40 40" fill="none" xmlns="http://www.w3.org/2000/svg">
<rect width="40" height="40" fill="#F5F5F4"/>
<path fill-rule="evenodd" clip-rule="evenodd" d="M19.9074 8C19.9464 8 19.9854 8.00059 20.0242 8.00148V13.5019C20.2604 12.751 20.6759 12.0444 21.271 11.4492C23.2451 9.47516 26.4457 9.47516 28.4198 11.4492C28.4474 11.4768 28.4745 11.5048 28.5014 11.5329L24.6119 15.4223C25.3099 15.0584 26.1034 14.8525 26.9451 14.8525C29.7368 14.8525 32 17.1156 32 19.9074C32 19.9464 31.9994 19.9854 31.9985 20.0242H26.4981C27.249 20.2604 27.9556 20.6759 28.5508 21.271C30.5248 23.2451 30.5248 26.4457 28.5508 28.4198C28.5232 28.4474 28.4952 28.4745 28.4671 28.5014L24.5777 24.6119C24.9416 25.31 25.1476 26.1034 25.1476 26.9451C25.1476 29.7368 22.8844 32 20.0926 32C20.0536 32 20.0146 31.9994 19.9758 31.9985V26.4981C19.7395 27.249 19.3241 27.9556 18.729 28.5508C16.7549 30.5248 13.5543 30.5248 11.5802 28.5508C11.5526 28.5232 11.5255 28.4952 11.4986 28.4671L15.3881 24.5777C14.69 24.9416 13.8966 25.1476 13.0549 25.1476C10.2632 25.1476 8 22.8844 8 20.0926C8 20.0536 8.00059 20.0146 8.00148 19.9758H13.5019C12.751 19.7395 12.0444 19.3241 11.4492 18.729C9.47516 16.7549 9.47516 13.5543 11.4492 11.5802C11.4768 11.5526 11.5048 11.5255 11.5329 11.4986L15.4223 15.3881C15.0584 14.6901 14.8525 13.8966 14.8525 13.0549C14.8525 10.2632 17.1156 8 19.9074 8ZM16.5452 19.9758H18.1084C18.1093 20.0146 18.1098 20.0536 18.1098 20.0926C18.1098 20.9343 17.9039 21.7278 17.54 22.4258L18.6453 21.3205C18.6734 21.3473 18.7013 21.3744 18.7289 21.402C19.3241 21.9972 19.7396 22.7039 19.9758 23.4548V21.8916C20.0146 21.8907 20.0536 21.8902 20.0926 21.8902C20.9343 21.8902 21.7278 22.0961 22.4258 22.46L21.3205 21.3547C21.3473 21.3266 21.3744 21.2987 21.402 21.2711C21.9972 20.6759 22.7039 20.2605 23.4548 20.0242H21.8916C21.8907 19.9854 21.8902 19.9464 21.8902 19.9074C21.8902 19.0657 22.0961 18.2723 22.46 17.5742L21.3547 18.6795C21.3266 18.6527 21.2987 18.6256 21.2711 18.598C20.6759 18.0028 20.2605 17.2961 20.0242 16.5452V18.1084C19.9854 18.1093 19.9464 18.1098 19.9074 18.1098C19.0657 18.1098 18.2723 17.9039 17.5742 17.54L18.6795 18.6453C18.6527 18.6734 18.6256 18.7013 18.598 18.7289C18.0028 19.3241 17.2961 19.7396 16.5452 19.9758Z" fill="#A99482"/>
</svg>
