<svg width="63" height="63" viewBox="0 0 63 63" fill="none" xmlns="http://www.w3.org/2000/svg">
<circle cx="31.5" cy="31.5" r="31.5" fill="#112439"/>
<path fill-rule="evenodd" clip-rule="evenodd" d="M21.7111 34.3025C21.5112 35.7736 21.4113 36.9946 21.4113 37.9656C21.4113 40.5841 22.3109 42.8202 24.1102 44.6738C25.9094 46.498 28.0942 47.4101 30.6646 47.4101C32.7209 47.4101 34.6916 46.9835 36.5765 46.1302C38.49 45.2476 41.3174 43.3204 45.0588 40.3488L45.9584 41.6286C39.1897 48.5429 32.7352 52 26.5949 52C22.4251 52 19.2836 50.6466 17.1701 47.9397C15.0567 45.2329 14 42.2465 14 38.9806C14 34.5967 15.3138 30.1098 17.9412 25.5199C20.5687 20.93 23.8674 17.3699 27.8372 14.8396C31.807 12.2799 35.8911 11 40.0894 11C43.1167 11 45.3586 11.6326 46.8152 12.8977C48.2717 14.1629 49 15.6634 49 17.3994C49 19.8414 48.0575 22.1805 46.1726 24.4166C43.6879 27.3294 40.0322 29.6832 35.2056 31.4779C32.0069 32.6842 27.5088 33.6258 21.7111 34.3025ZM32.3354 29.5802C29.6793 30.7865 26.2379 31.6398 22.011 32.1399C23.5532 25.9024 25.9523 21.1948 29.2081 18.0172C32.4925 14.8102 35.5912 13.2067 38.5043 13.2067C39.9037 13.2067 40.9747 13.5892 41.7173 14.3541C42.4884 15.1191 42.8739 16.1195 42.8739 17.3552C42.8739 19.3854 41.9886 21.5332 40.2179 23.7987C38.4757 26.0348 35.8482 27.962 32.3354 29.5802Z" fill="#2AE5B9"/>
</svg>
