<svg width="37" height="37" viewBox="0 0 37 37" xmlns="http://www.w3.org/2000/svg"><g xmlns="http://www.w3.org/2000/svg" width="37" height="37" fill="none" viewBox="0 0 37 37" transform="translate(0, 0) scale(0.925, 0.925)"><rect width="40" height="40" fill="url(#a)" rx="20"></rect><path fill="#fff" fill-rule="evenodd" d="M22.928 11.578c-.15.158-.278.537-.352 1.044-.18 1.232-.054 1.997.502 3.073.418.81.52.993.708 1.278.107.162.244.388.303.503.207.396.538.94 1.095 1.799.115.178.293.474.395.658l.226.407c.022.04.124.183.227.319.187.248.42.604.495.756.037.075.165.287.476.79.061.099.13.209.15.244.023.035.112.167.2.293s.233.353.322.504c.09.15.253.381.363.512.414.492.514.74.424 1.06-.037.13-.338.492-.378.452-.019-.018-.033.043-.023.1.003.016-.023.019-.058.008-.04-.013-.07-.002-.082.03-.01.028-.004.05.015.05.018 0 .025.016.013.034-.01.018-.049.032-.084.032s-.064.015-.064.033.037.033.083.033c.05 0 .082.019.082.05 0 .038.044.049.197.049.11 0 .197.015.197.033s.029.033.064.033.073.014.083.03c.023.037.21.134.261.135.036.001.25.181.25.211 0 .042.286.28.338.28.032 0 .067.023.077.05.012.03.062.05.13.05.062 0 .112.015.112.033s.02.032.046.032.088.023.14.05c.11.057.189.064.158.014q-.023-.035.105-.012.24.044.058.051l-.096.004.099.025c.149.038.352.038.329 0-.012-.018.001-.024.03-.013s.043.034.032.05c-.041.068.716.028.864-.045.282-.138.262-.49-.056-.995l-.105-.168c-.054-.09-.36-.712-.435-.884-.092-.21-.22-.456-.265-.51a8 8 0 0 1-.304-.558 15 15 0 0 0-.392-.723 13 13 0 0 1-.33-.592c-.17-.321-.367-.679-1.011-1.824a4 4 0 0 0-.149-.247c-.03-.045-.17-.304-.312-.575a12 12 0 0 0-.371-.674 35 35 0 0 1-1.026-1.741 11 11 0 0 0-.609-1.037 9 9 0 0 1-.31-.526 24 24 0 0 0-.363-.641c-.122-.208-.355-.607-.517-.888-.162-.28-.374-.635-.47-.789a19 19 0 0 1-.41-.684c-.019-.03-.143-.248-.277-.483-.374-.654-.585-.808-.8-.583m-6.102.424c-.242.088-.958.97-.958 1.177 0 .008-.187.367-.417.797s-.471.908-.537 1.062c-.067.153-.19.39-.273.526-.29.473-.6 1.208-.663 1.574a.7.7 0 0 1-.046.164.3.3 0 0 0-.02.127c.003.041-.003.074-.014.074-.046 0 .004.675.055.732.08.09.107.068.053-.042-.07-.14-.043-.178.061-.082.049.046.11.083.136.083.025 0 .065.022.087.049.035.042.026.05-.061.05-.057 0-.103.014-.103.032s.028.033.062.033.08.022.102.05c.06.07.354.065.438-.009.063-.056.064-.055.025.02-.043.08-.018.149.027.076a.13.13 0 0 1 .08-.05.3.3 0 0 0 .125-.072c.044-.04.062-.045.045-.015-.016.027.035-.013.112-.089a.8.8 0 0 1 .203-.158c.034-.011.063-.036.063-.056 0-.019.035-.067.078-.107s.134-.153.202-.25c.247-.356.36-.51.494-.671.074-.09.207-.273.294-.405.363-.547.71-.61 1.087-.193.098.109.18.21.18.227 0 .015.027.068.062.117.141.201.645.99.749 1.174.16.284.168.296.403.658.19.294.37.551.462.664.018.022.032.047.032.057a14 14 0 0 0 .592.873c.027.04.09.127.14.193.049.066.147.2.218.3.07.1.165.22.21.27.046.048.123.17.172.27.05.101.105.183.124.183s.026.01.014.02c-.023.024.113.215.24.342.046.045.118.127.16.18.041.055.064.077.05.05-.022-.043-.018-.044.034-.001.032.026.08.05.107.055a.3.3 0 0 1 .112.064c.035.031.063.04.063.02 0-.044.091-.017.17.05q.053.047.075.011c.04-.065.182-.04.182.031q.001.064.06.066c.033 0 .095.037.137.082s.095.082.116.082c.02 0 .072.037.115.082.058.063.11.083.215.083.085 0 .154.02.18.051.04.047.046.046.074-.002.027-.05.035-.05.092.003.035.031.064.043.064.027 0-.017.023-.001.05.034.046.061.048.061.048-.017 0-.064.007-.07.033-.03.028.043.032.043.033 0 0-.044.004-.044.033 0 .024.037.03.027.025-.042-.004-.05-.015-.09-.026-.09s-.02-.027-.023-.06c-.012-.16-.19-.611-.28-.71a.3.3 0 0 1-.058-.086.3.3 0 0 0-.065-.1c-.101-.123-.115-.145-.127-.196-.006-.026-.022-.055-.037-.064a4 4 0 0 1-.197-.428c-.243-.584-.437-.973-.889-1.775-.086-.154-.228-.42-.314-.592a8 8 0 0 0-.34-.591c-.1-.154-.289-.494-.42-.756a20 20 0 0 0-.745-1.377 7 7 0 0 1-.22-.39c0-.007-.05-.09-.11-.184-.146-.224-.35-.578-.35-.608 0-.037-.426-.78-.645-1.123-.11-.172-.291-.494-.404-.715-.368-.723-.809-.995-1.313-.81m6.538 10.822c.002.065.064.117.065.054.001-.055.007-.058.036-.016q.039.057.022.003c-.012-.046-.124-.083-.123-.041" clip-rule="evenodd"></path><path fill="#fff" fill-rule="evenodd" d="M22.9 11.43c-.346.345-.509 1.087-.48 2.188.028 1.125.175 1.552 1.053 3.063a196 196 0 0 0 1.637 2.776c.438.71.79 1.311.991 1.691.109.206.355.638.546.96.399.668.764 1.288 1.016 1.721.511.88.396.989-1.045.989h-.97l-.183-.086c-.256-.12-.558-.545-1.238-1.739-.108-.19-.345-.59-.526-.889s-.508-.861-.725-1.25a54 54 0 0 0-.765-1.312 79 79 0 0 1-1.057-1.794c-.137-.236-.347-.59-.468-.785a31 31 0 0 1-.492-.837c-.327-.578-1.189-2.063-1.363-2.347a27 27 0 0 1-.348-.598c-.588-1.04-.912-1.365-1.356-1.364-.394 0-.708.24-1.012.77-.168.292-.27.462-.88 1.455-.192.31-.542.902-.78 1.315-.237.412-.553.956-.703 1.21-.15.253-.399.674-.552.936-.154.263-.405.684-.559.937-.153.253-.365.623-.47.822-.106.199-.262.473-.346.608a16 16 0 0 0-.341.586c-.103.187-.322.556-.487.82s-.399.65-.52.86l-.597 1.038c-.208.362-.474.82-.592 1.02-1.311 2.217-1.317 2.232-1.094 2.68q.195.39.708.538c.218.064 10.679.104 10.992.043 1.209-.236-1.047-2.208-2.908-2.543-.263-.047-.634-.059-2.35-.075-2.25-.022-2.224-.019-2.332-.229-.093-.18-.032-.376.268-.861.072-.116.276-.463.453-.77.178-.308.415-.714.528-.904.112-.19.29-.5.394-.69s.247-.43.317-.534c.142-.211.865-1.428 1.06-1.784.07-.127.24-.423.38-.658l.634-1.07c.614-1.04.839-1.132 1.234-.503a74 74 0 0 1 1.399 2.339c.277.484.625 1.078.774 1.32s.366.617.483.832c.118.215.35.615.518.89.167.274.405.684.529.91.123.226.36.633.527.904s.382.633.478.805a9 9 0 0 0 .262.444c.049.072.153.25.231.395.635 1.173.972 1.587 1.412 1.732.247.08 6.669.101 7.068.022.574-.113.903-.58.79-1.123-.049-.237-.213-.554-.794-1.535a78 78 0 0 1-.653-1.118 33 33 0 0 0-.372-.641c-.108-.181-.318-.536-.465-.79-.811-1.387-1.341-2.29-1.61-2.744-.167-.28-.363-.613-.435-.74-.33-.58-.76-1.309-.935-1.582a14 14 0 0 1-.428-.74 16 16 0 0 0-.422-.735 15 15 0 0 1-.296-.493c-.107-.19-1.2-2.047-1.797-3.056-.474-.8-.681-.955-.936-.7m.456.18c.07.069.237.316.372.551a71 71 0 0 0 .41.713c.056.096.18.3.277.454.096.154.308.51.47.79s.395.68.517.887c.122.208.285.496.363.641.077.145.217.381.31.526.281.436.462.744.61 1.037a35 35 0 0 0 1.025 1.74c.064.1.23.403.371.675.141.27.281.53.312.575s.098.156.149.247a83 83 0 0 1 1.011 1.824c.11.208.258.474.33.592s.249.443.392.723.28.532.304.559c.046.053.173.299.265.51.074.171.38.793.435.883l.105.168c.318.505.338.857.056.995-.148.073-.905.113-.864.046.01-.017-.004-.04-.032-.05-.029-.012-.042-.006-.03.012.023.038-.18.038-.33 0l-.098-.025.096-.004q.183-.008-.058-.05-.128-.025-.105.011c.031.05-.049.043-.159-.014a.4.4 0 0 0-.14-.05c-.024 0-.045-.014-.045-.032s-.05-.033-.111-.033c-.07 0-.12-.02-.13-.05-.011-.027-.046-.05-.078-.05-.052 0-.338-.238-.338-.28 0-.03-.214-.21-.25-.211a.66.66 0 0 1-.261-.135c-.01-.017-.048-.03-.083-.03s-.064-.015-.064-.033-.087-.033-.197-.033c-.153 0-.197-.011-.197-.05 0-.03-.031-.049-.082-.049-.046 0-.083-.014-.083-.033 0-.018.03-.032.064-.032.035 0 .073-.015.084-.033s.005-.033-.013-.033c-.019 0-.025-.023-.015-.05q.02-.05.082-.03c.035.01.06.007.058-.008-.01-.058.004-.12.023-.1.04.039.341-.322.378-.453.09-.32-.01-.568-.424-1.06a5 5 0 0 1-.363-.512 10 10 0 0 0-.322-.504 10 10 0 0 1-.2-.293c-.02-.035-.089-.145-.15-.245a17 17 0 0 1-.476-.789 6.5 6.5 0 0 0-.495-.756 5 5 0 0 1-.227-.32l-.226-.406c-.102-.184-.28-.48-.395-.658-.557-.859-.888-1.403-1.094-1.8a7 7 0 0 0-.304-.502c-.438-.661-.982-1.777-1.147-2.348-.125-.436-.172-1.106-.113-1.625.144-1.28.437-1.77.83-1.39m-5.828.454c.255.15.393.318.61.747.114.221.295.543.405.715.22.344.646 1.086.646 1.123 0 .03.203.384.349.608.06.094.11.177.11.185s.1.183.22.389c.304.52.469.824.745 1.377.131.262.32.602.42.756.1.153.253.42.34.591.086.172.228.438.314.592.452.802.646 1.191.89 1.775.094.226.182.419.196.428s.031.038.037.064c.012.051.026.073.127.195a.3.3 0 0 1 .065.101c0 .012.026.05.058.085.09.1.268.55.28.71.003.034.013.06.023.06s.022.042.026.091c.005.07 0 .08-.025.042-.029-.044-.033-.044-.033 0-.001.043-.005.043-.033 0-.026-.04-.032-.034-.033.03 0 .078-.002.078-.049.017-.026-.035-.048-.05-.049-.034 0 .016-.029.004-.064-.027-.057-.053-.065-.053-.092-.003-.028.048-.035.049-.073.002-.026-.032-.096-.051-.181-.051-.105 0-.157-.02-.215-.083-.043-.045-.095-.082-.115-.082s-.073-.037-.116-.082c-.042-.045-.104-.082-.137-.082q-.058-.001-.06-.066c0-.072-.142-.096-.182-.03q-.021.035-.076-.012c-.078-.067-.17-.094-.17-.05 0 .02-.027.011-.062-.02a.3.3 0 0 0-.112-.064.3.3 0 0 1-.108-.055c-.051-.043-.055-.042-.033.001.014.027-.009.005-.05-.05a2 2 0 0 0-.16-.18c-.127-.127-.263-.318-.24-.341q.016-.019-.014-.02c-.019 0-.074-.083-.124-.183a1.4 1.4 0 0 0-.172-.272 3 3 0 0 1-.21-.269c-.071-.1-.17-.234-.219-.3a6 6 0 0 1-.139-.193l-.102-.144c-.105-.14-.49-.713-.49-.73 0-.009-.014-.034-.032-.056a9 9 0 0 1-.462-.664 9 9 0 0 1-.403-.658 29 29 0 0 0-.75-1.174.4.4 0 0 1-.062-.117c0-.016-.08-.118-.18-.227-.376-.416-.723-.354-1.086.194-.087.131-.22.313-.294.404a10 10 0 0 0-.494.67c-.068.098-.159.21-.202.25s-.078.09-.078.108c0 .02-.028.045-.063.056a.8.8 0 0 0-.203.158c-.077.076-.128.116-.112.09q.024-.045-.045.014a.3.3 0 0 1-.126.072.13.13 0 0 0-.079.05c-.045.073-.07.004-.027-.077.039-.074.038-.075-.025-.019-.084.074-.378.08-.438.008a.15.15 0 0 0-.102-.049c-.034 0-.062-.015-.062-.033s.046-.033.103-.033c.087 0 .096-.007.061-.049-.022-.027-.062-.05-.087-.05-.026 0-.087-.036-.136-.082-.104-.096-.132-.059-.061.082.054.11.027.131-.053.042-.051-.057-.101-.732-.054-.732.01 0 .016-.033.012-.074a.3.3 0 0 1 .02-.127.7.7 0 0 0 .047-.164c.063-.366.372-1.1.663-1.574.084-.136.206-.373.273-.526.066-.154.308-.632.537-1.062s.417-.789.417-.797c0-.075.473-.784.624-.934.315-.316.693-.381 1.036-.18m5.96 10.8q.016.055-.023-.002c-.03-.042-.035-.04-.036.016 0 .063-.063.01-.065-.054-.001-.043.111-.005.123.04" clip-rule="evenodd"></path><path stroke="#fff" stroke-width="0.808" d="M23.786 16.973c-.188-.285-.29-.468-.709-1.278-.555-1.076-.68-1.84-.5-3.073.073-.507.2-.886.35-1.044.216-.225.427-.071.8.583m.059 4.812c.107.162.244.388.303.503.207.396.538.94 1.095 1.799.115.178.293.474.395.658l.226.407c.022.04.124.183.227.319.187.248.42.604.495.756.037.075.165.287.476.79.061.099.13.209.15.244.023.035.112.167.2.293s.233.353.322.504c.09.15.253.381.363.512.414.492.514.74.424 1.06-.037.13-.338.492-.378.452-.019-.018-.033.043-.023.1.003.016-.023.019-.058.008-.04-.013-.07-.002-.082.03-.01.028-.004.05.015.05.018 0 .025.016.013.034-.01.018-.049.032-.084.032s-.064.015-.064.033.037.033.083.033c.05 0 .082.019.082.05 0 .038.044.049.197.049.11 0 .197.015.197.033s.029.033.064.033.073.014.083.03c.023.037.21.134.261.135.036.001.25.181.25.211 0 .042.286.28.338.28.032 0 .067.023.077.05.012.03.062.05.13.05.062 0 .112.015.112.033s.02.032.046.032.088.023.14.05c.11.057.189.064.158.014q-.023-.035.105-.012.24.044.058.051l-.096.004.099.025c.149.038.352.038.329 0-.012-.018.001-.024.03-.013s.043.034.032.05c-.041.068.716.028.864-.045.282-.138.262-.49-.056-.995l-.105-.168c-.054-.09-.36-.712-.435-.884-.092-.21-.22-.456-.265-.51a8 8 0 0 1-.304-.558 15 15 0 0 0-.392-.723 13 13 0 0 1-.33-.592c-.17-.321-.367-.679-1.011-1.824a4 4 0 0 0-.149-.247c-.03-.045-.17-.304-.312-.575a12 12 0 0 0-.371-.674 35 35 0 0 1-1.026-1.741 11 11 0 0 0-.609-1.037 9 9 0 0 1-.31-.526 24 24 0 0 0-.363-.641c-.122-.208-.355-.607-.517-.888-.162-.28-.374-.635-.47-.789a19 19 0 0 1-.41-.684c-.019-.03-.143-.248-.277-.483m.058 4.812c-.438-.661-.982-1.777-1.147-2.348-.125-.436-.172-1.106-.113-1.625.144-1.28.437-1.77.83-1.39.07.069.237.316.372.551m-7.86 1.018c0-.208.716-1.089.958-1.177.504-.186.945.086 1.313.809m-2.27.368c0 .008-.188.367-.418.797s-.471.908-.537 1.062c-.067.153-.19.39-.273.526-.29.473-.6 1.208-.663 1.574a.7.7 0 0 1-.046.164.3.3 0 0 0-.02.127c.003.041-.003.074-.014.074-.046 0 .004.675.055.732.08.09.107.068.053-.042-.07-.14-.043-.178.061-.082.049.046.11.083.136.083.025 0 .065.022.087.049.035.042.026.05-.061.05-.057 0-.103.014-.103.032s.028.033.062.033.08.022.102.05c.06.07.354.065.438-.009.063-.056.064-.055.025.02-.043.08-.018.149.027.076a.13.13 0 0 1 .08-.05.3.3 0 0 0 .125-.072c.044-.04.062-.045.045-.015-.016.027.035-.013.112-.089a.8.8 0 0 1 .203-.158c.034-.011.063-.036.063-.056 0-.019.035-.067.078-.107s.134-.153.202-.25c.247-.356.36-.51.494-.671.074-.09.207-.273.294-.405.363-.547.71-.61 1.087-.193.098.109.18.21.18.227 0 .015.027.068.062.117.141.201.645.99.749 1.174.16.284.168.296.403.658.19.294.37.551.462.664.018.022.032.047.032.057a14 14 0 0 0 .592.873c.027.04.09.127.14.193.049.066.147.2.218.3.07.1.165.22.21.27.046.048.123.17.172.27.05.101.105.183.124.183s.026.01.014.02c-.023.024.113.215.24.342.046.045.118.127.16.18.041.055.064.077.05.05-.022-.043-.018-.044.034-.001.032.026.08.05.107.055a.3.3 0 0 1 .112.064c.035.031.063.04.063.02 0-.044.091-.017.17.05q.053.047.075.011c.04-.065.182-.04.182.031q.001.064.06.066c.033 0 .095.037.137.082s.095.082.116.082c.02 0 .072.037.115.082.058.063.11.083.215.083.085 0 .154.02.18.051.04.047.046.046.074-.002.027-.05.035-.05.092.003.035.031.064.043.064.027 0-.017.023-.001.05.034.046.061.048.061.048-.017 0-.064.007-.07.033-.03.028.043.032.043.033 0 0-.044.004-.044.033 0 .024.037.03.027.025-.042-.004-.05-.015-.09-.026-.09s-.02-.027-.023-.06c-.012-.16-.19-.611-.28-.71a.3.3 0 0 1-.058-.086.3.3 0 0 0-.065-.1c-.101-.123-.115-.145-.127-.196-.006-.026-.022-.055-.037-.064a4 4 0 0 1-.197-.428c-.243-.584-.437-.973-.889-1.775-.086-.154-.228-.42-.314-.592a8 8 0 0 0-.34-.591c-.1-.154-.289-.494-.42-.756a20 20 0 0 0-.745-1.377 7 7 0 0 1-.22-.39c0-.007-.05-.09-.11-.184-.146-.224-.35-.578-.35-.608 0-.037-.426-.78-.645-1.123-.11-.172-.291-.494-.404-.715m-2.27.368c0-.075.472-.784.623-.934.315-.316.693-.381 1.036-.18.255.149.393.317.61.746m5.226 10.013c.002.065.064.117.065.054.001-.055.007-.058.036-.016q.039.057.022.003c-.012-.046-.124-.083-.123-.041ZM22.9 11.43c-.346.345-.509 1.087-.48 2.188.028 1.125.175 1.552 1.053 3.063a196 196 0 0 0 1.637 2.776c.438.71.79 1.311.991 1.691.109.206.355.638.546.96.399.668.764 1.288 1.016 1.721.511.88.396.989-1.045.989h-.97l-.183-.086c-.256-.12-.558-.545-1.238-1.739-.108-.19-.345-.59-.526-.889s-.508-.861-.725-1.25a54 54 0 0 0-.765-1.312 79 79 0 0 1-1.057-1.794c-.137-.236-.347-.59-.468-.785a31 31 0 0 1-.492-.837c-.327-.578-1.189-2.063-1.363-2.347a27 27 0 0 1-.348-.598c-.588-1.04-.912-1.365-1.356-1.364-.394 0-.708.24-1.012.77-.168.292-.27.462-.88 1.455-.192.31-.542.902-.78 1.315-.237.412-.553.956-.703 1.21-.15.253-.399.674-.552.936-.154.263-.405.684-.559.937-.153.253-.365.623-.47.822-.106.199-.262.473-.346.608a16 16 0 0 0-.341.586c-.103.187-.322.556-.487.82s-.399.65-.52.86l-.597 1.038c-.208.362-.474.82-.592 1.02-1.311 2.217-1.317 2.232-1.094 2.68q.195.39.708.538c.218.064 10.679.104 10.992.043 1.209-.236-1.047-2.208-2.908-2.543-.263-.047-.634-.059-2.35-.075-2.25-.022-2.224-.019-2.332-.229-.093-.18-.032-.376.268-.861.072-.116.276-.463.453-.77.178-.308.415-.714.528-.904.112-.19.29-.5.394-.69s.247-.43.317-.534c.142-.211.865-1.428 1.06-1.784.07-.127.24-.423.38-.658l.634-1.07c.614-1.04.839-1.132 1.234-.503a74 74 0 0 1 1.399 2.339c.277.484.625 1.078.774 1.32s.366.617.483.832c.118.215.35.615.518.89.167.274.405.684.529.91.123.226.36.633.527.904s.382.633.478.805a9 9 0 0 0 .262.444c.049.072.153.25.231.395.635 1.173.972 1.587 1.412 1.732.247.08 6.669.101 7.068.022.574-.113.903-.58.79-1.123-.049-.237-.213-.554-.794-1.535a78 78 0 0 1-.653-1.118 33 33 0 0 0-.372-.641c-.108-.181-.318-.536-.465-.79-.811-1.387-1.341-2.29-1.61-2.744-.167-.28-.363-.613-.435-.74-.33-.58-.76-1.309-.935-1.582a14 14 0 0 1-.428-.74 16 16 0 0 0-.422-.735 15 15 0 0 1-.296-.493c-.107-.19-1.2-2.047-1.797-3.056-.474-.8-.681-.955-.936-.7Z"></path><defs><radialGradient id="a" cx="0" cy="0" r="1" gradientTransform="matrix(0 26 -26 0 20 0)" gradientUnits="userSpaceOnUse"><stop stop-color="#00B8E5"></stop><stop offset="1" stop-color="#0071F4"></stop></radialGradient></defs></g><circle cx="18.5" cy="18.5" r="17.5" stroke="#1BE3C2" stroke-width="2" fill="none"></circle></svg>