<svg width="37" height="37" viewBox="0 0 37 37" xmlns="http://www.w3.org/2000/svg"><g xmlns="http://www.w3.org/2000/svg" width="37" height="37" fill="none" viewBox="0 0 37 37" transform="translate(0.22162162774317973, -0.06478377129580523) scale(0.74, 0.7254901960784313)"><rect width="50" height="50" x="-0.164" y="0.547" fill="url(#a)" rx="25"></rect><path fill="#fff" stroke="#fff" stroke-width="0.096" d="M17.633 13.988c.238 0 .431.194.431.432v7.475c0 .124.07.238.18.296l1.622.863a.34.34 0 0 0 .34-.014l4.269-2.745a.43.43 0 0 1 .454-.008l4.636 2.76a.34.34 0 0 0 .336.005l1.529-.859a.34.34 0 0 0 .172-.293v-7.48c0-.239.193-.432.431-.432h3.037c.239 0 .432.194.432.432v9.75c0 .15-.078.29-.206.368l-10.363 6.326a.43.43 0 0 1-.462-.008l-2.854-1.882a.432.432 0 0 1 .019-.733l4.119-2.42a.336.336 0 0 0-.004-.582l-.874-.496a.34.34 0 0 0-.346.008l-6.31 4.006a.34.34 0 0 0-.157.283v7.633a.43.43 0 0 1-.431.431h-3.144a.43.43 0 0 1-.431-.431v-9.76c0-.144.071-.278.19-.358l1.108-.745a.336.336 0 0 0-.005-.561l-1.097-.71a.43.43 0 0 1-.196-.362V14.42c0-.239.193-.432.431-.432zm17.223 12.548a.432.432 0 0 1 .646.375v9.762a.43.43 0 0 1-.432.431h-3.037a.43.43 0 0 1-.431-.431v-8.027c0-.154.083-.297.217-.373z"></path><defs><radialGradient id="a" cx="0" cy="0" r="1" gradientTransform="rotate(64.407 2.558 11.259)scale(49.4335)" gradientUnits="userSpaceOnUse"><stop stop-color="#C4B19F"></stop><stop offset="0.266" stop-color="#A08472"></stop><stop offset="0.746" stop-color="#584656"></stop><stop offset="1" stop-color="#3E3548"></stop></radialGradient></defs></g><circle cx="18.5" cy="18.5" r="17.5" stroke="#1BE3C2" stroke-width="2" fill="none"></circle></svg>