<svg width="37" height="37" viewBox="0 0 37 37" fill="none" xmlns="http://www.w3.org/2000/svg">
<g clip-path="url(#clip0_7006_10414)">
<path d="M18.5 36C28.165 36 36 28.165 36 18.5C36 8.83502 28.165 1 18.5 1C8.83502 1 1 8.83502 1 18.5C1 28.165 8.83502 36 18.5 36Z" fill="#F0DA5B"/>
<path fill-rule="evenodd" clip-rule="evenodd" d="M14.3126 5.99268H10.3864V29.5504H18.2389V28.6081C19.4178 29.2114 20.7535 29.5517 22.1687 29.5517C26.9393 29.5517 30.8065 25.6845 30.8065 20.9139C30.8065 16.1433 26.9393 12.2761 22.1687 12.2761C20.7535 12.2761 19.4178 12.6164 18.2389 13.2197V7.01581V5.99268H14.3126ZM18.2389 13.2197C15.444 14.6501 13.5309 17.5586 13.5309 20.9139C13.5309 24.2692 15.444 27.1777 18.2389 28.6081V13.2197Z" fill="#1C1D4F"/>
</g>
<circle cx="18.5" cy="18.5" r="17.5" stroke="#1BE3C2" stroke-width="2"/>
<defs>
<clipPath id="clip0_7006_10414">
<rect width="35" height="35" fill="white" transform="translate(1 1)"/>
</clipPath>
</defs>
</svg>
