<svg width="48" height="48" viewBox="0 0 48 48" fill="none" xmlns="http://www.w3.org/2000/svg">
<g clip-path="url(#clip0_1660_7663)">
<rect width="48" height="48" rx="24" fill="#F5F7FA"/>
<path fill-rule="evenodd" clip-rule="evenodd" d="M-4 24L5 43L24 51.5L43 43L51.5 24L43 5L24 -4L5 5L-4 24Z" fill="#EDEDED"/>
<path d="M28.0889 6.85958C28.5113 6.39295 29.0976 5.35209 29.0976 5.06888C29.0976 4.98571 29.1266 4.97818 29.1923 5.04455C29.3729 5.22687 29.485 6.3509 29.3882 7.00949C29.1105 8.89824 27.9627 10.0312 24.4153 11.9179C23.8652 12.2105 23.4019 12.4603 23.3857 12.4731C23.3695 12.4859 23.7173 12.4987 24.1585 12.5016C25.0304 12.5072 25.5049 12.5812 26.5519 12.8749C27.4579 13.1291 28.2962 13.1985 28.9564 13.074C29.2539 13.0179 29.5294 13.0045 29.5687 13.0442C29.6877 13.1644 29.1921 13.7738 28.693 14.1209C27.9698 14.6238 27.1324 14.8717 25.4558 15.0794C23.8693 15.2758 23.2832 15.4025 22.1878 15.7855C20.5495 16.3585 19.3208 17.0788 18.3098 18.0591C17.6873 18.6626 17.6873 18.6626 18.0692 18.5314C19.0699 18.1875 20.941 18.1257 22.2787 18.3925C22.986 18.5335 24.0633 18.5127 24.5971 18.3477C24.8472 18.2704 25.1037 18.2067 25.1672 18.2062C25.3588 18.2045 24.9755 18.8506 24.5365 19.2694C23.852 19.922 23.1471 20.238 21.3779 20.6854C19.8793 21.0645 18.8786 21.6648 18.0453 22.6849C16.9341 24.0451 16.3158 25.8465 16.233 27.9653C16.2109 28.53 16.2134 28.9093 16.2385 28.8084L16.3864 28.2116C16.4985 27.7592 16.8358 27.0266 17.1179 26.6227C17.4362 26.1672 17.3853 26.4247 17.0607 26.9116C16.817 27.2774 16.7334 27.5151 16.6837 27.9843C16.6485 28.3159 16.6433 28.6111 16.6723 28.6403C16.8145 28.7839 16.9856 28.5517 17.0394 28.1422C17.0721 27.8935 17.1641 27.4458 17.244 27.1476C17.3238 26.8492 17.4019 26.5018 17.4176 26.3756C17.4521 26.0968 18.2621 25.3387 18.9275 24.9624C19.337 24.7308 19.3902 24.719 19.3417 24.8706C19.311 24.9662 19.1259 25.4989 18.9304 26.0543C18.406 27.5437 18.2414 28.6067 18.3068 30.0807C18.3879 31.9133 18.7791 33.4402 19.6248 35.2263C20.0512 36.1269 20.0512 36.1269 20.0568 34.6709C20.0622 33.283 20.0763 33.173 20.3566 32.3198C20.5183 31.8275 20.686 31.4247 20.7292 31.4247C20.7724 31.4247 20.8326 31.7863 20.8628 32.228C21.0202 34.5175 21.6652 36.2079 22.9554 37.7119C23.2694 38.0778 23.2694 38.0778 23.1853 37.7119C23.0465 37.1075 23.1074 35.4619 23.2684 35.4651C23.2992 35.4658 23.5486 35.9099 23.8228 36.452C24.2412 37.2794 24.4457 37.5632 25.0956 38.2181C25.9414 39.0703 26.6394 39.4821 27.9157 39.8815C28.8912 40.1867 30.408 40.1885 31.3706 39.8853C32.6645 39.4779 34.2881 38.3922 35.6481 37.0249C36.8322 35.8344 37.4129 35.0558 38.0448 33.8116C38.9821 31.966 39.3725 30.3732 39.3698 28.4062C39.368 27.1212 39.2319 26.3219 38.8788 25.5238C38.596 24.8849 38.5846 24.5582 38.8277 24.0769C39.0393 23.6581 39.2144 23.618 39.4238 23.9407C39.6181 24.2402 39.7101 24.644 39.8729 25.9131C40.1236 27.8682 39.9983 30.0038 39.542 31.5534C38.6579 34.5558 36.5154 37.3615 33.689 39.2184C33.2344 39.517 33.2344 39.517 33.7787 39.0283C34.8901 38.0303 35.0248 37.8542 34.0981 38.6107C33.573 39.0393 33.1426 39.4464 33.1415 39.5156C33.1403 39.5861 33.0665 39.6283 32.9732 39.612C32.8818 39.596 32.8318 39.6233 32.862 39.6727C32.9434 39.8058 31.1081 40.7193 29.9811 41.1065C29.4419 41.2919 28.4269 41.5627 27.7255 41.7084C26.6481 41.9322 26.2007 41.9768 24.8418 41.9962C23.1233 42.0205 22.3418 41.9358 20.7331 41.5503C18.414 40.9947 16.4099 40.13 14.8566 39.0148C9.94927 35.4918 7.46929 30.0982 8.09535 24.31C8.14454 23.8556 8.22427 23.3186 8.27246 23.1166C8.32074 22.9146 8.42729 22.4602 8.5093 22.1068C9.00135 19.9864 10.2479 17.7116 11.9806 15.7724C13.4684 14.1072 14.4775 13.2293 16.786 11.5915C18.6558 10.265 19.3821 9.66213 19.931 8.98123C20.4256 8.3678 21.0574 7.17272 21.1497 6.67625C21.2791 5.98002 21.6238 6.7014 21.7067 7.84159C21.7647 8.64027 21.6353 9.3365 21.3202 9.92C21.2043 10.1346 21.1174 10.3102 21.127 10.3102C21.1365 10.3102 21.7576 10.0871 22.507 9.81443C26.0032 8.5426 27.0827 7.97112 28.0889 6.85958Z" fill="#1E1E1E"/>
</g>
<defs>
<clipPath id="clip0_1660_7663">
<rect width="48" height="48" rx="24" fill="white"/>
</clipPath>
</defs>
</svg>
