<svg width="37" height="37" viewBox="0 0 37 37" xmlns="http://www.w3.org/2000/svg"><g xmlns="http://www.w3.org/2000/svg" width="37" height="37" fill="none" viewBox="0 0 37 37" transform="translate(-0.0035926200248099665, 0) scale(0.2781954887218045, 0.2781954887218045)"><path fill="#329EE1" stroke="#fff" stroke-width="3" d="M66.5 1.5h.002c35.898 0 65 29.101 65 64.999v.002c0 35.898-29.102 64.999-65 64.999H66.5c-35.898 0-65-29.101-65-64.999v-.002C1.5 30.601 30.602 1.5 66.5 1.5Z"></path><g filter="url(#a)"><path fill="#fff" d="M87.81 69.942v17.544L79.296 96h-9.202v9.46h-7.31V96H52.636l-8.342-8.342v-6.536h8.17v3.87l3.698 3.784h6.622V68.824h-9.976l-8.342-8.428V44.142l8.342-8.342h9.976v-9.46h7.31v9.46h8.686l8.342 8.342v6.622h-8.084v-3.956l-3.784-3.784h-5.16V61.6h9.374zM62.784 61.6V43.024H56.42l-3.784 3.784v11.008L56.42 61.6zM79.64 72.522l-3.784-3.698h-5.762v19.952h5.762l3.784-3.87z"></path></g><g filter="url(#b)"><path fill="#fff" d="M55.833 16.205C32.575 21.084 15.11 41.712 15.109 66.419c0 24.708 17.466 45.335 40.724 50.214v3.637c-25.24-4.933-44.286-27.167-44.286-53.85 0-26.684 19.047-48.918 44.286-53.851zm21.27-3.618c25.192 4.971 44.19 27.183 44.19 53.832s-18.999 48.862-44.19 53.832v-3.637c23.21-4.915 40.626-25.52 40.626-50.195 0-24.673-17.416-45.28-40.626-50.195z"></path></g><defs><filter id="a" width="51.516" height="87.12" x="40.294" y="26.34" color-interpolation-filters="sRGB" filterUnits="userSpaceOnUse"><feFlood flood-opacity="0" result="BackgroundImageFix"></feFlood><feColorMatrix in="SourceAlpha" result="hardAlpha" values="0 0 0 0 0 0 0 0 0 0 0 0 0 0 0 0 0 0 127 0"></feColorMatrix><feOffset dy="4"></feOffset><feGaussianBlur stdDeviation="2"></feGaussianBlur><feComposite in2="hardAlpha" operator="out"></feComposite><feColorMatrix values="0 0 0 0 0 0 0 0 0 0 0 0 0 0 0 0 0 0 0.25 0"></feColorMatrix><feBlend in2="BackgroundImageFix" result="effect1_dropShadow_1648_672"></feBlend><feBlend in="SourceGraphic" in2="effect1_dropShadow_1648_672" result="shape"></feBlend></filter><filter id="b" width="117.746" height="115.701" x="7.547" y="12.569" color-interpolation-filters="sRGB" filterUnits="userSpaceOnUse"><feFlood flood-opacity="0" result="BackgroundImageFix"></feFlood><feColorMatrix in="SourceAlpha" result="hardAlpha" values="0 0 0 0 0 0 0 0 0 0 0 0 0 0 0 0 0 0 127 0"></feColorMatrix><feOffset dy="4"></feOffset><feGaussianBlur stdDeviation="2"></feGaussianBlur><feComposite in2="hardAlpha" operator="out"></feComposite><feColorMatrix values="0 0 0 0 0 0 0 0 0 0 0 0 0 0 0 0 0 0 0.25 0"></feColorMatrix><feBlend in2="BackgroundImageFix" result="effect1_dropShadow_1648_672"></feBlend><feBlend in="SourceGraphic" in2="effect1_dropShadow_1648_672" result="shape"></feBlend></filter></defs></g><circle cx="18.5" cy="18.5" r="17.5" stroke="#1BE3C2" stroke-width="2" fill="none"></circle></svg>