<svg width="64" height="64" viewBox="0 0 64 64" fill="none" xmlns="http://www.w3.org/2000/svg">
<g clip-path="url(#clip0_1_2)">
<path d="M32 64C49.6731 64 64 49.6731 64 32C64 14.3269 49.6731 0 32 0C14.3269 0 0 14.3269 0 32C0 49.6731 14.3269 64 32 64Z" fill="#1A82FF"/>
<path d="M28.5363 19.2036C28.723 19.4252 28.9118 19.6432 29.1023 19.8594C30.0236 19.6469 30.9815 19.5297 31.967 19.5297C37.768 19.5297 42.6569 23.4239 44.168 28.7414C44.4575 28.8036 44.745 28.8659 45.0363 28.919C47.3351 29.3421 48.7821 29.5931 49.6851 29.7451C48.4818 21.0354 41.0084 14.3295 31.967 14.3295C29.747 14.3295 27.6204 14.7342 25.6586 15.4742C26.4958 16.61 27.7083 18.1669 28.5344 19.2036H28.5363Z" fill="white"/>
<path d="M44.7047 33.7108C47.4194 33.2126 48.9671 32.9451 49.8445 32.8041C49.85 32.6099 49.8555 32.414 49.8555 32.218C49.8555 32.022 49.8519 31.8241 49.8445 31.6281C48.9671 31.4852 47.4194 31.2196 44.7047 30.7215C44.6571 30.7123 44.6076 30.7031 44.56 30.694C44.6205 31.194 44.6552 31.7014 44.6552 32.218C44.6552 32.7345 44.6205 33.24 44.5619 33.7401C44.6095 33.731 44.659 33.7217 44.7066 33.7126L44.7047 33.7108Z" fill="white"/>
<path d="M27.1166 44.0691C27.1441 44.0361 27.1716 44.005 27.1991 43.9739C22.5556 42.089 19.2806 37.5373 19.2806 32.218C19.2806 26.8986 22.5556 22.345 27.1991 20.4603C27.1716 20.4273 27.1422 20.3943 27.1147 20.3631C27.1147 20.3631 25.1237 17.861 23.9405 16.229C18.0917 19.1706 14.0785 25.2263 14.0785 32.2198C14.0785 39.2133 18.0917 45.2671 23.9405 48.2088C25.1237 46.5749 27.1166 44.0728 27.1166 44.0728V44.0691Z" fill="white"/>
<path d="M45.0362 35.5133C44.7469 35.5664 44.4575 35.6268 44.1699 35.6909C42.6587 41.0084 37.7699 44.9044 31.9689 44.9044C30.9815 44.9044 30.0236 44.7873 29.1022 44.5748C28.9117 44.789 28.723 45.007 28.538 45.2286C27.712 46.2673 26.4994 47.8241 25.6604 48.9599C27.6222 49.6999 29.7487 50.1046 31.9689 50.1046C41.0101 50.1046 48.4835 43.3969 49.687 34.6871C48.784 34.8374 47.3369 35.0901 45.0381 35.5133H45.0362Z" fill="white"/>
<path d="M23.1747 41.4736C25.7007 38.966 29.736 36.8266 34.612 35.3594C34.6139 35.3594 34.6156 35.3575 34.6194 35.3558H34.6175C34.6175 35.3558 34.6156 35.3594 34.6139 35.3594C32.0696 36.7936 29.7049 38.5778 27.6405 40.6384C26.8694 41.4078 26.1312 42.2228 25.4406 43.0654L25.3472 43.1808C25.9114 43.5234 26.503 43.82 27.1185 44.0729C27.7137 43.3585 28.3475 42.6624 29.0051 42.0066H29.007C33.328 37.693 38.7554 34.83 44.7084 33.7126C44.7652 33.2218 44.7981 32.7235 44.7981 32.218C44.7981 31.7125 44.7652 31.2124 44.7084 30.7215C38.7554 29.6041 33.3261 26.7411 29.0051 22.4294C28.3513 21.7736 27.7175 21.0794 27.1185 20.3631C26.5012 20.6159 25.9078 20.9145 25.3454 21.257L25.4387 21.3706C26.1312 22.2169 26.8712 23.032 27.6386 23.7976C29.7067 25.8601 32.0714 27.6443 34.6194 29.0803C29.7396 27.6094 25.7044 25.4718 23.1785 22.9605L23.1546 22.9368C22.6876 23.3819 22.2535 23.8618 21.856 24.3728C23.4166 25.9096 25.4461 27.309 27.8915 28.5271H27.8896C30.0455 29.6005 32.5148 30.5219 35.178 31.2509H19.2129C19.189 31.5696 19.1725 31.892 19.1725 32.2161C19.1725 32.5404 19.189 32.8628 19.2129 33.1815H35.1816C32.5184 33.9086 30.0455 34.83 27.8932 35.9053C25.448 37.1234 23.4202 38.5228 21.8577 40.0595C22.2535 40.5706 22.6876 41.0505 23.1565 41.4956L23.1803 41.4718L23.1747 41.4736Z" fill="white"/>
<path opacity="0.2" d="M52.0023 51.8686C62.9743 40.8215 62.9156 22.9715 51.8686 11.9996C40.8215 1.02762 22.9715 1.08623 11.9995 12.1333L52.0023 51.8686Z" fill="white"/>
<path d="M39.5339 22.0355C41.741 23.6804 43.3951 26.025 44.1681 28.7432C44.4575 28.8055 44.745 28.8678 45.0363 28.9209C47.3351 29.344 48.7821 29.595 49.6852 29.747C49.0092 24.8526 46.3515 20.5921 42.5506 17.7969L39.5339 22.0374V22.0355Z" fill="url(#paint0_linear_1_2)"/>
<path d="M39.5356 42.3967C41.7429 40.7519 43.3969 38.4074 44.1699 35.6891C44.4594 35.6267 44.7469 35.5645 45.0381 35.5114C47.3369 35.0882 48.784 34.8374 49.687 34.6852C49.0111 39.5796 46.3533 43.8402 42.5525 46.6354L39.5356 42.395V42.3967Z" fill="url(#paint1_linear_1_2)"/>
</g>
<defs>
<linearGradient id="paint0_linear_1_2" x1="46.8607" y1="36.506" x2="43.9116" y2="22.4623" gradientUnits="userSpaceOnUse">
<stop stop-color="#1A82FF" stop-opacity="0.5"/>
<stop offset="1" stop-color="white"/>
</linearGradient>
<linearGradient id="paint1_linear_1_2" x1="46.8608" y1="27.9262" x2="43.9116" y2="41.97" gradientUnits="userSpaceOnUse">
<stop stop-color="#1A82FF" stop-opacity="0.5"/>
<stop offset="1" stop-color="white"/>
</linearGradient>
<clipPath id="clip0_1_2">
<rect width="64" height="64" fill="white"/>
</clipPath>
</defs>
</svg>
