<svg width="37" height="37" viewBox="0 0 37 37" xmlns="http://www.w3.org/2000/svg"><g xmlns="http://www.w3.org/2000/svg" width="37" height="37" fill="none" viewBox="0 0 37 37" transform="translate(1.3297416068412162, 1.3297416068412162) scale(0.24666666666666667, 0.24666666666666667)"><circle cx="74.672" cy="74.672" r="73.174" fill="#fff" stroke="#002B31" stroke-width="2.996"></circle><path fill="#002B31" d="m65.194 108.115 4.29-5.053V46.051l-14.586.858-7.532 5.816h-.762l1.525-12.585h53.198l1.525 12.585h-.762l-7.627-5.816-14.491-.858v57.011l4.29 5.053v.763H65.194z"></path><path fill="#002B31" stroke="#002B31" stroke-width="0.738" d="M58.61 67.065h32.126v5.223H58.61zM58.61 78.05h32.126v5.223H58.61z"></path><path stroke="url(#a)" stroke-width="10.816" d="M74.672 143.858c-38.21 0-69.186-30.975-69.186-69.186 0-38.21 30.976-69.186 69.186-69.186"></path><path stroke="url(#b)" stroke-width="10.816" d="M74.675 5.487c38.211 0 69.186 30.975 69.186 69.186s-30.975 69.186-69.186 69.186"></path><defs><linearGradient id="a" x1="40.079" x2="40.079" y1="5.486" y2="143.858" gradientUnits="userSpaceOnUse"><stop stop-color="#002B31"></stop><stop offset="1" stop-color="#002B31" stop-opacity="0"></stop></linearGradient><linearGradient id="b" x1="109.268" x2="109.268" y1="143.859" y2="5.487" gradientUnits="userSpaceOnUse"><stop offset="0.004" stop-color="#002B31"></stop><stop offset="0.084" stop-color="#002B31"></stop><stop offset="1" stop-color="#002B31" stop-opacity="0"></stop></linearGradient></defs></g><circle cx="18.5" cy="18.5" r="17.5" stroke="#1BE3C2" stroke-width="2" fill="none"></circle></svg>