<svg width="37" height="37" viewBox="0 0 37 37" fill="none" xmlns="http://www.w3.org/2000/svg">
<rect x="2" y="2" width="33" height="33" rx="16.5" fill="#0E0B2F"/>
<path d="M33.7781 18.4997C33.7781 26.9376 26.9378 33.7778 18.5 33.7778C10.0621 33.7778 3.22185 26.9376 3.22185 18.4997C3.22185 10.0618 10.0621 3.2216 18.5 3.2216C26.9378 3.2216 33.7781 10.0618 33.7781 18.4997Z" stroke="#BF7E4B" stroke-width="0.66"/>
<path fill-rule="evenodd" clip-rule="evenodd" d="M23.4655 15.375C23.3221 13.5301 21.7135 12.8818 19.6718 12.6665L19.7226 10.1117L18.1386 10.082L18.0885 12.5695C17.6721 12.5608 17.2469 12.5613 16.8226 12.5616L16.8734 10.0579L15.2892 10.0273L15.2382 12.5812C14.895 12.5812 14.5575 12.5817 14.2291 12.5748L14.229 12.5668L12.0433 12.5244L12.0105 14.1849C12.0105 14.1849 13.1816 14.1854 13.1617 14.206C13.8036 14.2187 14.0047 14.5882 14.0595 14.9055L14.002 17.8155C14.046 17.8163 14.1034 17.8196 14.1694 17.829L14.0018 17.8263L13.9206 21.9031C13.888 22.1003 13.7631 22.414 13.3141 22.4064C13.3347 22.4241 12.1626 22.3844 12.1626 22.3844L11.8108 24.2348L13.8735 24.2743C14.2569 24.2823 14.6343 24.2962 15.0043 24.3054L14.9538 26.8887L16.5369 26.9186L16.5877 24.3638C17.0223 24.3801 17.443 24.3914 17.8537 24.3995L17.8023 26.9436L19.3863 26.9733L19.438 24.3951C22.1056 24.2962 23.983 23.6735 24.2634 21.223C24.49 19.2503 23.56 18.3494 22.0547 17.9645C22.9832 17.5233 23.573 16.7255 23.4655 15.375ZM21.1379 20.8568C21.1015 22.7877 17.7358 22.5032 16.6616 22.4836L16.7309 19.0605C17.8055 19.0818 21.1789 18.8434 21.1379 20.8568ZM20.4974 16.0132C20.4624 17.7701 17.6565 17.5104 16.7626 17.4934L16.8243 14.3899C17.7181 14.4069 20.534 14.1808 20.4974 16.0132Z" fill="url(#paint0_linear_4829_5437)"/>
<circle cx="18.5" cy="18.5" r="17.5" stroke="#1BE3C2" stroke-width="2"/>
<defs>
<linearGradient id="paint0_linear_4829_5437" x1="11.8108" y1="18.3346" x2="24.895" y2="18.3346" gradientUnits="userSpaceOnUse">
<stop stop-color="#5589DF"/>
<stop offset="1" stop-color="#9D5FEE"/>
</linearGradient>
</defs>
</svg>
