<svg xmlns="http://www.w3.org/2000/svg" width="37" height="37"><g fill="none"><g clip-path="url(#a)"><mask id="b" width="37" height="37" x="0" y="0" maskUnits="userSpaceOnUse" style="mask-type:luminance"><path fill="#fff" d="M37 0H0v37h37z"/></mask><g mask="url(#b)"><path fill="#F1F1F1" d="M18.5 37C28.717 37 37 28.717 37 18.5S28.717 0 18.5 0 0 8.283 0 18.5 8.283 37 18.5 37"/><path fill="#F96D30" d="M27.322 31.33a1.794 1.794 0 0 1-1.792-1.79c0-.986.804-1.79 1.792-1.79.987 0 1.791.803 1.791 1.79s-.804 1.79-1.791 1.79"/><path fill="#1D1D1F" d="M24.477 21.462a5.5 5.5 0 0 0-1.439-2.18 16.6 16.6 0 0 0-2.297-1.806c-.183-.107-.347-.224-.516-.328l1.157-4.557s.028.007.024.021c.326.31.55.669.685 1.08.076.232.12.47.105.707-.006.316.222.6.531.68l2.645.67a.723.723 0 0 0 .895-.634c.075-.827-.012-1.605-.275-2.337a5.65 5.65 0 0 0-1.797-2.48c-.56-.445-1.218-.808-1.966-1.104l.731-2.882a.616.616 0 0 0-.44-.747l-1.083-.274a.616.616 0 0 0-.742.446l-.72 2.84a7.7 7.7 0 0 0-2.445.014c-1.08.18-1.997.611-2.737 1.285-.754.67-1.27 1.582-1.562 2.732s-.237 2.524.332 3.53c.565 1.02 1.528 1.944 2.883 2.802.256.17.516.327.758.494l-1.319 5.197a2 2 0 0 1-.273-.22 2.95 2.95 0 0 1-.81-1.294c-.1-.313-.137-.64-.125-.984a.73.73 0 0 0-.531-.74l-2.56-.649a.72.72 0 0 0-.892.62c-.111.97-.025 1.868.288 2.703.392 1.051 1.049 1.943 2 2.683.623.491 1.336.869 2.124 1.19l-.642 2.527a.616.616 0 0 0 .44.746l1.083.275c.324.082.66-.12.742-.447l.627-2.47c1.063.179 2.025.166 2.903-.05 1.118-.275 2.037-.767 2.76-1.49a5.5 5.5 0 0 0 1.466-2.59c.256-1.008.3-2.13.013-2.944zM18 15.526c-.34-.313-.57-.643-.706-.995-.135-.352-.154-.75-.039-1.204.116-.454.322-.795.609-1.04.286-.244.64-.396 1.041-.445.092-.007.187-.028.29-.018l-.985 3.877c-.06-.061-.136-.11-.196-.171zm1.804 9.238c-.308.27-.693.43-1.134.514a2.4 2.4 0 0 1-.518.034l1.128-4.444c.098.086.196.171.28.253.386.37.662.757.825 1.176q.245.63.056 1.375c-.126.497-.333.837-.651 1.089z"/></g></g><defs><clipPath id="a"><path fill="#fff" d="M0 0h37v37H0z"/></clipPath></defs></g><svg xmlns="http://www.w3.org/2000/svg" width="37" height="37" fill="none" transform="translate(.5 .5)" viewBox="0 0 37 37"><circle cx="18.5" cy="18.5" r="17.5" stroke="#1BE3C2" stroke-width="2"/></svg></svg>