<svg width="550" height="550" viewBox="0 0 550 550" fill="none" xmlns="http://www.w3.org/2000/svg">
<path d="M540.929 275.826C540.929 127.251 420.485 6.80664 271.91 6.80664C123.335 6.80664 2.89062 127.251 2.89062 275.826C2.89062 424.401 123.335 544.845 271.91 544.845C420.485 544.845 540.929 424.401 540.929 275.826Z" fill="#FA3812"/>
<path d="M432.686 331.978C425.361 320.999 414.932 312.451 402.729 307.424C400.041 306.307 397.281 305.371 394.468 304.622C389.265 277.724 372.915 264.975 356.536 259.029L287.475 234.447C260.176 224.699 249.257 209.092 249.257 189.197C249.257 169.302 269.924 148.235 298.423 148.235C326.922 148.235 357.708 175.933 372.143 223.527H381.49V137.715H371.743L358.108 161.498C350.392 153.398 341.141 146.917 330.893 142.431C320.646 137.945 309.608 135.545 298.423 135.371H290.619C272.138 122.651 250.225 115.851 227.79 115.877C161.473 115.877 99.8438 193.113 99.8438 275.809C99.8438 358.505 161.473 435.369 227.79 435.369C241.764 435.601 255.646 433.066 268.637 427.91C281.628 422.754 293.47 415.079 303.482 405.327L318.318 433.397H330.009V416.132C341.702 427.88 357.35 434.852 373.904 435.69C390.457 436.529 406.73 431.172 419.549 420.665C432.369 410.159 440.816 395.255 443.245 378.859C445.673 362.463 441.909 345.75 432.686 331.978ZM228.59 420.534C185.684 420.534 151.354 389.319 151.354 322.631V229.787C151.354 163.07 187.999 131.856 228.59 131.856C241.794 131.83 254.701 135.773 265.636 143.175C253.908 149.077 244.051 158.123 237.165 169.302C230.5 180.654 226.996 193.584 227.018 206.748C227.018 239.906 242.225 260.602 266.036 268.777L322.977 289.072C334.76 292.909 345.864 298.582 355.878 305.88C346.143 309.146 337.298 314.625 330.038 321.888H330.009V306.595H317.918C306.198 380.344 271.496 420.534 228.59 420.534ZM418.851 410.701C409.21 420.336 396.527 426.331 382.962 427.664C369.398 428.996 355.79 425.584 344.459 418.009C333.128 410.433 324.774 399.163 320.821 386.119C316.868 373.075 317.561 359.063 322.78 346.472C328 333.881 337.424 323.489 349.447 317.067C361.469 310.646 375.347 308.592 388.714 311.255C402.081 313.918 414.112 321.134 422.755 331.673C431.399 342.212 436.121 355.422 436.116 369.053C436.137 376.792 434.622 384.458 431.658 391.607C428.694 398.756 424.341 405.246 418.851 410.701Z" fill="#FEFDFC"/>
<path d="M352.412 332.9L360.111 333.006L367.812 332.9H376.324V338.587H366.179V386.311C366.179 390.176 366.486 393.684 368.434 396.704L368.627 396.995L368.633 397.003C371.241 400.866 375.721 402.965 381.142 402.965C386.265 402.965 390.57 401.162 393.594 398.089C396.618 395.015 398.43 390.6 398.43 385.254V338.587H389.658V332.9H413.1V338.587H404.329V385.254C404.329 392.226 401.908 398.143 397.718 402.32C393.528 406.496 387.637 408.863 380.825 408.863C371.197 408.863 364.099 406.042 359.293 400.677L359.291 400.675C354.656 395.475 354.045 388.422 354.045 381.344V338.587H343.9V332.9H352.412Z" fill="white" stroke="white" stroke-width="2.2"/>
</svg>
