<svg width="124" height="125" viewBox="0 0 124 125" fill="none" xmlns="http://www.w3.org/2000/svg">
<circle cx="62" cy="62.5" r="62" fill="#FCDD33"/>
<path d="M39.7274 62.3172H30.0016C29.9505 61.7173 29.7399 61.2004 29.3698 60.7664C28.9996 60.3325 28.521 60.0006 27.9339 59.7709C27.3595 59.5284 26.7213 59.4071 26.0194 59.4071C25.1131 59.4071 24.3346 59.573 23.6836 59.9049C23.0327 60.2367 22.7136 60.709 22.7264 61.3216C22.7136 61.7556 22.8987 62.1576 23.2816 62.5278C23.6772 62.8979 24.4367 63.1851 25.5599 63.3893L31.5332 64.4614C34.5454 65.0103 36.7854 65.9356 38.2532 67.2375C39.7337 68.5266 40.4804 70.2561 40.4932 72.4259C40.4804 74.5191 39.855 76.3379 38.6169 77.8823C37.3916 79.4139 35.7132 80.6009 33.5817 81.4433C31.463 82.2729 29.0443 82.6877 26.3257 82.6877C21.8329 82.6877 18.3166 81.7688 15.7766 79.9308C13.2495 78.0929 11.8391 75.6678 11.5455 72.6556H22.0371C22.1775 73.5874 22.637 74.3085 23.4156 74.819C24.2069 75.3168 25.2025 75.5657 26.4023 75.5657C27.3723 75.5657 28.17 75.3998 28.7954 75.0679C29.4336 74.7361 29.7591 74.2638 29.7718 73.6512C29.7591 73.0896 29.4783 72.6429 28.9294 72.311C28.3934 71.9791 27.551 71.7111 26.4023 71.5069L21.1947 70.5879C18.1953 70.0646 15.9489 69.0691 14.4556 67.6013C12.9623 66.1335 12.222 64.2445 12.2348 61.9343C12.222 59.8921 12.7581 58.1627 13.843 56.7459C14.9406 55.3164 16.5042 54.2315 18.5336 53.4912C20.5757 52.7382 22.9944 52.3616 25.7896 52.3616C30.0399 52.3616 33.3903 53.2423 35.8409 55.0037C38.3042 56.7651 39.5997 59.2029 39.7274 62.3172Z" fill="black"/>
<path fill-rule="evenodd" clip-rule="evenodd" d="M69.2266 27.4555H45.7448V97.5425H69.2266V94.7231C72.7341 96.521 76.7095 97.5354 80.9219 97.5354C95.1012 97.5354 106.596 86.0409 106.596 71.8618C106.596 57.6826 95.1012 46.1882 80.9219 46.1882C76.7095 46.1882 72.7341 47.2026 69.2266 49.0005V27.4555ZM69.2266 49.0005C60.9275 53.2546 55.248 61.895 55.248 71.8618C55.248 81.8286 60.9275 90.469 69.2266 94.7231V49.0005Z" fill="black"/>
</svg>
