<svg width="37" height="37" viewBox="0 0 37 37" xmlns="http://www.w3.org/2000/svg"><g xmlns="http://www.w3.org/2000/svg" width="37" height="37" fill="none" viewBox="0 0 37 37" transform="translate(-0.0004327103898331926, -0.0004327103898331926) scale(1.15625, 1.15625)"><rect width="30.919" height="30.919" x="0.541" y="0.541" fill="#025DCA" rx="15.46"></rect><rect width="30.919" height="30.919" x="0.541" y="0.541" stroke="#024BA1" stroke-width="1.081" rx="15.46"></rect><path fill="#FDF7EF" d="M15.352 14.073q-.802 0-1.157-.406-.354-.417-.354-1.094 0-1.5 2.24-1.5c1.402 0 2.779.443 3.644.876l-.54.54c-.433-.324-1.882-.666-3.104-.666q-.896 0-1.209.198a.63.63 0 0 0-.302.552q0 .354.167.552t.614.198h1.292q1.406 0 2.531.48 1.135.478 1.864 1.312a5.75 5.75 0 0 1 1.115 1.906q.385 1.072.385 2.301 0 1-.281 1.896a5.3 5.3 0 0 1-.854 1.646q-.563.75-1.365 1.302-.791.54-1.895.843-1.094.313-2.375.313-2.01 0-3.77-.615A8.2 8.2 0 0 1 9.08 22.92l.433-.433c.708.64 1.765 1.21 2.827 1.565q1.605.52 3.427.52 1.427 0 2.573-.405 1.155-.417 1.895-1.136a4.9 4.9 0 0 0 1.146-1.666q.406-.948.406-2.042 0-1.447-.583-2.614-.584-1.177-1.781-1.906-1.188-.729-2.812-.729zm1.187.75q2.115 0 3.301 1.291 1.199 1.291 1.198 3.208 0 1.948-1.385 3.23-1.384 1.27-3.885 1.27-1.666 0-3.114-.458c-.965-.306-1.96-.863-2.6-1.418l.54-.54c.57.465 1.522 1.024 2.383 1.28a9.8 9.8 0 0 0 2.791.386q2.198 0 3.354-1.052 1.166-1.051 1.166-2.698 0-1.625-.979-2.687-.968-1.062-2.78-1.062H15.35q-1.52 0-2.28-.833-.76-.834-.76-2.167t.937-2.166q.948-.834 2.833-.833 1.321 0 2.458.312c.756.201 1.725.65 2.218 1.033l-.54.54c-.868-.597-2.512-1.136-4.136-1.136q-1.573 0-2.302.625-.72.615-.719 1.625 0 1.02.531 1.635.542.615 1.76.615zm-.042 1.5q1.52 0 2.281.843.76.845.76 2.156 0 1.334-.947 2.167-.937.833-2.823.833-1.323 0-2.468-.302c-.757-.208-1.78-.665-2.273-1.047l.54-.54c.869.596 2.57 1.14 4.201 1.14q1.573 0 2.291-.615.73-.625.73-1.636t-.542-1.624q-.542-.625-1.76-.625h-1.135q-2.136 0-3.344-1.271-1.198-1.28-1.198-3.229 0-1.947 1.386-3.218 1.385-1.281 3.885-1.281 1.665 0 3.103.458c.965.306 2.015.75 2.654 1.306l-.54.54c-.57-.465-1.575-.912-2.436-1.169a9.7 9.7 0 0 0-2.781-.385q-2.198 0-3.365 1.052-1.155 1.05-1.156 2.697 0 1.635.98 2.698.979 1.052 2.812 1.052zm0 1.5q.802 0 1.156.416.354.417.354 1.083 0 1.5-2.239 1.5c-1.41 0-3.06-.405-3.768-.822l.54-.54c.487.221 2 .612 3.228.612q.896 0 1.198-.198a.62.62 0 0 0 .312-.552q0-.344-.177-.541-.166-.209-.625-.208h-1.124q-1.438 0-2.604-.47-1.156-.468-1.906-1.29a5.8 5.8 0 0 1-1.136-1.907 6.8 6.8 0 0 1-.395-2.333q0-1 .28-1.895a5.4 5.4 0 0 1 .844-1.646q.573-.75 1.365-1.292.801-.552 1.895-.854a8.7 8.7 0 0 1 2.386-.312q2.01 0 3.76.614c1.166.403 2.192.948 2.97 1.677l-.54.54c-.709-.639-1.712-1.203-2.774-1.55a10.7 10.7 0 0 0-3.416-.531q-1.428 0-2.583.416-1.146.406-1.896 1.125a5.1 5.1 0 0 0-1.146 1.667 5.2 5.2 0 0 0-.396 2.041q0 1.47.594 2.646t1.812 1.895q1.22.71 2.886.709zm.781 7.38-.368.052-.382.038v2.383h.75zm-3 2.473h.75V25.3l-.363-.026-.386-.04zm3-23.352h-.75V6.58l.337.015.413.037zm-3 2.422.34-.061.41-.055V4.324h-.75z"></path></g><circle cx="18.5" cy="18.5" r="17.5" stroke="#1BE3C2" stroke-width="2" fill="none"></circle></svg>