<svg width="128" height="128" viewBox="0 0 128 128" fill="none" xmlns="http://www.w3.org/2000/svg">
<path d="M0 64C0 28.6538 28.6538 0 64 0C99.3462 0 128 28.6538 128 64C128 99.3462 99.3462 128 64 128C28.6538 128 0 99.3462 0 64Z" fill="url(#paint0_linear_630_421851)"/>
<path fill-rule="evenodd" clip-rule="evenodd" d="M93.4326 26.0821C104.73 34.8641 112 48.5826 112 64C112 79.4175 104.729 93.135 93.4316 101.917C89.6934 104.823 81.0015 96.0903 84.8584 93.3438C92.4751 87.9198 97.8893 79.6048 99.501 70H87.2412C86.2076 74.0194 84.1189 77.8236 80.9717 80.9707C71.5989 90.3428 56.4028 90.3429 47.0303 80.9707C43.8835 77.8239 41.7954 74.02 40.7617 70.001H28.499C30.1108 79.6052 35.5245 87.92 43.1406 93.3438C46.9977 96.0906 38.3059 104.824 34.5674 101.918C24.7591 94.2936 17.9872 82.9484 16.3721 70.001H16.3691C16.1242 68.036 15.997 66.0333 15.9971 64.002C15.9972 61.9695 16.1238 59.9661 16.3691 58L16.3721 57.9991C17.987 45.0518 24.7584 33.7065 34.5664 26.0821C38.3046 23.1761 46.9964 31.9087 43.1396 34.6553C35.5235 40.0792 30.1095 48.3944 28.498 57.9991H40.7607C41.7945 53.9803 43.8836 50.177 47.0303 47.0303C56.4031 37.658 71.6001 37.6577 80.9727 47.0303C84.1192 50.1769 86.2075 53.9806 87.2412 57.9991H99.502C97.8904 48.3943 92.4758 40.0792 84.8594 34.6553C81.0025 31.9087 89.6944 23.1761 93.4326 26.0821ZM72.4863 55.5157C67.8 50.8294 60.2021 50.8295 55.5156 55.5157C50.8297 60.2018 50.8287 67.7992 55.5146 72.4854C60.2009 77.1716 67.7999 77.1714 72.4863 72.4854C73.2461 71.7256 73.8802 70.888 74.3936 70L74.3877 70.001C75.4092 68.2358 75.9969 66.1871 75.9971 64.001C75.9971 61.8141 75.4088 59.7647 74.3867 57.9991H74.3936C73.8803 57.1116 73.2456 56.275 72.4863 55.5157Z" fill="white"/>
<defs>
<linearGradient id="paint0_linear_630_421851" x1="147.617" y1="167.234" x2="147.617" y2="0" gradientUnits="userSpaceOnUse">
<stop stop-color="#04243C"/>
<stop offset="1" stop-color="#2B9CAE"/>
</linearGradient>
</defs>
</svg>
