<svg width="37" height="37" viewBox="0 0 37 37" fill="none" xmlns="http://www.w3.org/2000/svg">
<g clip-path="url(#clip0_6674_10078)">
<path d="M37 18.5C37 8.28273 28.7173 0 18.5 0C8.28273 0 0 8.28273 0 18.5C0 28.7173 8.28273 37 18.5 37C28.7173 37 37 28.7173 37 18.5Z" fill="#131313"/>
<path d="M12.1323 8.09002C11.9973 8.16704 11.7947 8.28237 11.8249 8.28237H11.8252C12.0871 8.43084 12.3424 8.57472 12.5934 8.71629C13.1634 9.03781 13.7097 9.34589 14.2524 9.65988C14.8486 10.005 15.4438 10.352 16.0386 10.6988C16.8081 11.1474 17.578 11.5961 18.3498 12.0409C18.4275 12.0858 18.571 12.0946 18.6457 12.0523C19.2711 11.6987 19.8918 11.3366 20.5125 10.9747C20.6941 10.8689 20.8757 10.763 21.0573 10.6572C21.2919 10.5205 21.5266 10.3838 21.7612 10.2472C22.3358 9.9122 22.9103 9.57759 23.4864 9.24527C23.7388 9.10007 23.9931 8.95752 24.2471 8.81496C24.488 8.67993 24.7289 8.54456 24.9685 8.40724C25.1631 8.29581 25.1536 8.26107 24.9465 8.14016C24.5987 7.93759 24.2527 7.73278 23.9095 7.52302C23.5549 7.30672 23.1636 7.25263 22.8096 7.44239C21.871 7.94614 20.9399 8.46329 20.0085 8.98078C19.5428 9.23936 19.0774 9.49797 18.6107 9.75489C18.5556 9.78538 18.4606 9.80605 18.4134 9.77947C17.8411 9.45829 17.2706 9.13482 16.6996 8.81135C15.9236 8.37151 15.1475 7.93172 14.3681 7.49776C14.0043 7.2949 13.6091 7.25033 13.2233 7.46433C12.9448 7.61871 12.6695 7.77866 12.3939 7.93857C12.3299 7.97561 12.266 8.01266 12.2021 8.0497C12.1831 8.06084 12.1588 8.07458 12.132 8.08968L12.1323 8.09002Z" fill="#FF5C00"/>
<path d="M18.5205 12.62C18.356 12.62 18.1964 12.5768 18.0804 12.5099C17.3263 12.0754 16.5682 11.6336 15.8334 11.2052L15.8023 11.1974L15.7397 11.1505C15.1635 10.8146 14.568 10.4675 13.9817 10.1279C13.4452 9.81756 12.9081 9.51442 12.3397 9.19388L12.328 9.18733C12.0838 9.04971 11.8354 8.9094 11.581 8.76553C11.445 8.69736 11.3398 8.57347 11.2992 8.41977C11.2759 8.33161 11.2248 8.02715 11.5483 7.80821C11.5745 7.79052 11.6069 7.76989 11.6505 7.74399C11.7161 7.70465 11.7947 7.65974 11.8593 7.62304L11.8645 7.6201C11.8917 7.60471 11.914 7.59191 11.9321 7.58145L12.1372 7.46245C12.4056 7.30679 12.6832 7.14587 12.9618 6.99119C13.4826 6.70242 14.0761 6.71454 14.6326 7.02525C15.4136 7.46049 16.2025 7.90751 16.9658 8.33982L16.9766 8.34603C17.4734 8.62757 17.9854 8.91761 18.4927 9.20307C18.9181 8.96839 19.3386 8.73474 19.7469 8.50793C20.6639 7.99865 21.6121 7.47198 22.555 6.96593C23.0561 6.69719 23.6526 6.73227 24.192 7.06132C24.5008 7.24976 24.837 7.44969 25.2195 7.67254C25.3598 7.75415 25.6515 7.92423 25.6501 8.28313C25.6488 8.64033 25.3506 8.81142 25.2385 8.87568C24.9947 9.01594 24.7495 9.15326 24.5126 9.286L24.5011 9.29221C24.256 9.42953 24.003 9.57145 23.7571 9.71337C23.1839 10.044 22.6068 10.3803 22.048 10.7057L22.0339 10.7139C21.7992 10.8506 21.5642 10.9876 21.3296 11.1243C21.148 11.2298 20.9668 11.3357 20.7855 11.4412L20.7705 11.45C20.1645 11.8033 19.5385 12.1688 18.9125 12.5227C18.7923 12.5909 18.6549 12.6194 18.5205 12.6194V12.62ZM16.2729 10.2096L16.3116 10.2322C17.03 10.651 17.7713 11.0833 18.5091 11.509C19.0911 11.1784 19.6745 10.8382 20.2402 10.5081L20.2553 10.4993C20.4319 10.3964 20.6086 10.2931 20.7855 10.1902C21.0156 10.0565 21.2454 9.92244 21.4751 9.78873L21.4892 9.78052C22.0532 9.45182 22.6363 9.11227 23.2167 8.77735C23.472 8.6302 23.7319 8.48467 23.9829 8.34373L23.9944 8.33752C24.0318 8.31655 24.0698 8.29525 24.1075 8.27394C23.94 8.1743 23.781 8.07827 23.6283 7.98521C23.416 7.85542 23.2265 7.83347 23.0659 7.91963C22.1302 8.42173 21.1854 8.94645 20.272 9.45411C19.8171 9.70682 19.3471 9.96799 18.8725 10.2292C18.6959 10.3272 18.3996 10.3921 18.1496 10.2515C17.5809 9.93226 17.0041 9.60552 16.4466 9.28927L16.4312 9.28043C15.6702 8.8491 14.8833 8.4034 14.1063 7.97012C13.8031 7.80102 13.6074 7.87047 13.4865 7.93737C13.2922 8.04518 13.0959 8.15758 12.9025 8.26935C13.4619 8.58495 13.9919 8.88419 14.5238 9.19158C15.1078 9.52981 15.7 9.87493 16.2733 10.2092L16.2729 10.2096ZM18.6789 9.30828C18.6789 9.30828 18.6789 9.30828 18.6792 9.30828C18.6792 9.30828 18.6792 9.30828 18.6789 9.30828Z" fill="#FF5C00"/>
<path d="M17.5341 25.99C17.5318 26.2889 17.5298 26.5878 17.5298 26.8867L17.5288 26.8874H17.5374C17.5374 27.1957 17.5386 27.5042 17.54 27.8125C17.5436 28.6267 17.5468 29.4404 17.5259 30.2536C17.518 30.5573 17.6331 30.7121 17.8641 30.8376C17.9037 30.8589 17.9431 30.8805 17.9824 30.9021C18.1181 30.9765 18.2535 31.0509 18.3941 31.1142C18.457 31.142 18.5543 31.1492 18.6127 31.1194C18.7146 31.068 18.8129 31.0096 18.9112 30.9513C19.0191 30.8874 19.1269 30.8231 19.239 30.7684C19.4241 30.6783 19.4743 30.555 19.4792 30.3499C19.5008 29.4181 19.49 28.4861 19.4792 27.554C19.4605 25.9503 19.4421 24.347 19.588 22.7464C19.6106 22.4976 19.6378 22.2433 19.7106 22.0063C19.88 21.4525 20.0639 20.9019 20.2684 20.3601C20.6459 19.3602 21.2273 18.4835 21.9185 17.672C22.6264 16.8409 23.4409 16.1415 24.3851 15.5935C24.7168 15.4008 25.0484 15.2078 25.3798 15.0147H25.3808V15.0141C25.9418 14.6873 26.5026 14.3609 27.0644 14.0355C28.0204 13.4816 28.977 12.929 29.9356 12.3791C30.0497 12.3132 30.109 12.263 30.109 12.0988C30.1048 11.9779 30.1057 11.8567 30.1067 11.7357C30.108 11.5784 30.1093 11.4208 30.0992 11.2641C30.0933 11.1786 30.0255 11.0704 29.953 11.0216C29.757 10.8898 29.5469 10.7765 29.3336 10.6735C29.2569 10.6368 29.133 10.6126 29.0684 10.649C28.5362 10.9508 28.0079 11.2589 27.4793 11.5669C27.2108 11.7233 26.9424 11.8796 26.6737 12.0353C26.3885 12.2004 26.1021 12.3637 25.816 12.5266C25.2667 12.8396 24.7177 13.1525 24.1763 13.4789L24.1137 13.517C23.4608 13.9109 22.8051 14.3068 22.1951 14.7617C21.4571 15.3127 20.8118 15.9711 20.233 16.6947C19.5729 17.5196 19.003 18.3944 18.5976 19.3723C18.5828 19.4077 18.5333 19.452 18.5028 19.45C18.4707 19.448 18.435 19.3992 18.415 19.3632C18.4055 19.3458 18.4026 19.3245 18.3993 19.3029C18.3967 19.2828 18.3937 19.2626 18.3855 19.2455C17.8929 18.2249 17.3001 17.2686 16.5551 16.4109C15.5296 15.2294 14.3154 14.2983 12.9438 13.5409C11.8472 12.9353 10.767 12.2994 9.68707 11.6639C9.11582 11.3277 8.54423 10.9914 7.97039 10.6595C7.89861 10.6182 7.77178 10.609 7.69902 10.6437C7.47974 10.7496 7.26739 10.8735 7.0681 11.0134C6.99108 11.0675 6.919 11.1809 6.91245 11.2723C6.89212 11.5489 6.89016 11.8298 6.91275 12.1067C6.92227 12.2231 6.99963 12.327 7.0832 12.3761C7.4509 12.5931 7.82256 12.8041 8.19422 13.0149C8.47836 13.1761 8.76219 13.3374 9.04471 13.5013C9.47042 13.7484 9.89418 13.9988 10.3183 14.2488C11.0377 14.6736 11.7571 15.098 12.4849 15.508C13.7398 16.2143 14.7709 17.1699 15.6191 18.316C16.442 19.4287 17.0015 20.6813 17.3043 22.0306C17.4387 22.6277 17.4987 23.2498 17.5197 23.8627C17.5439 24.5706 17.5386 25.2795 17.5334 25.9883L17.5341 25.99Z" fill="#FF5C00"/>
<path d="M18.5196 31.6792C18.3868 31.6792 18.2636 31.6483 18.1741 31.6084C18.0122 31.5356 17.8647 31.4547 17.7222 31.3763L17.6937 31.3606C17.6648 31.3446 17.6357 31.3288 17.6065 31.3131C17.1755 31.0791 16.9723 30.7281 16.9851 30.2394C17.0061 29.4335 17.0025 28.6106 16.9989 27.8145C16.9975 27.5051 16.9963 27.196 16.9963 26.8867H17.403L16.989 26.8863C16.989 26.5917 16.9913 26.2931 16.9933 26.0044V25.9857C16.9986 25.2948 17.0038 24.5804 16.9799 23.8823C16.9569 23.2219 16.8907 22.6553 16.7773 22.1502C16.4869 20.8557 15.9511 19.6745 15.1848 18.6385C14.3517 17.5127 13.3544 16.6183 12.2205 15.9802C11.4886 15.5683 10.7558 15.1357 10.0472 14.7174L10.0335 14.7093C9.62085 14.4658 9.19446 14.2141 8.77397 13.9699C8.49277 13.8067 8.20571 13.6438 7.92808 13.4861L7.9245 13.4842C7.55842 13.2764 7.17987 13.0614 6.80919 12.8428C6.56439 12.6989 6.39755 12.4338 6.37463 12.1516C6.35103 11.8609 6.35069 11.5521 6.37365 11.2339C6.39266 10.9812 6.54372 10.7217 6.75841 10.5713C6.97799 10.4165 7.21593 10.2773 7.46468 10.1573C7.69868 10.0449 8.01003 10.059 8.24041 10.1914C8.81922 10.526 9.39995 10.8679 9.96172 11.1985C11.0209 11.8219 12.1156 12.4662 13.2056 13.0683C14.71 13.8991 15.9393 14.8767 16.9638 16.0573C17.5397 16.7202 18.0486 17.4596 18.5088 18.3019C18.8519 17.6606 19.2829 17.0182 19.8115 16.3574C20.4653 15.5401 21.1392 14.8764 21.872 14.3291C22.5032 13.8581 23.18 13.4498 23.8345 13.0545L23.8971 13.0168C24.4431 12.6878 25.0029 12.3686 25.5443 12.0598L25.5485 12.0575C25.8284 11.898 26.1182 11.7331 26.4029 11.5679C26.6714 11.4126 26.9395 11.2565 27.2072 11.1002C27.729 10.7961 28.2672 10.4824 28.8017 10.1793C29.0563 10.0354 29.3644 10.0888 29.5679 10.1868C29.8324 10.3143 30.0569 10.4405 30.2545 10.5732C30.4672 10.7165 30.6213 10.9789 30.6386 11.2271C30.6504 11.405 30.6488 11.5748 30.6475 11.739C30.6465 11.853 30.6455 11.9697 30.6494 12.0801V12.0992C30.6494 12.5914 30.3273 12.7776 30.206 12.8477C29.3519 13.3373 28.4402 13.863 27.335 14.5034C26.7851 14.822 26.2358 15.1419 25.6865 15.4617L25.6515 15.4821C25.3198 15.6751 24.9881 15.8681 24.6561 16.0612C23.7948 16.5613 23.0122 17.2214 22.3298 18.0227C21.6029 18.8764 21.094 19.7033 20.7738 20.5512C20.5859 21.049 20.407 21.5767 20.2271 22.1649C20.1697 22.3511 20.1468 22.5694 20.1261 22.7955C19.9829 24.3683 20.0016 25.9844 20.0196 27.547C20.0304 28.4693 20.0412 29.4217 20.0196 30.3627C20.016 30.52 20.0045 30.9978 19.4749 31.2551C19.3838 31.2996 19.2884 31.356 19.1878 31.416C19.0817 31.4789 18.9742 31.5428 18.8562 31.6025C18.7467 31.6575 18.6297 31.6788 18.5193 31.6788L18.5196 31.6792ZM18.2764 30.4469C18.3531 30.4888 18.4271 30.5291 18.5003 30.5662C18.5435 30.5413 18.5877 30.515 18.6333 30.4882C18.7319 30.4295 18.8319 30.3702 18.9394 30.3145C18.96 29.4001 18.9492 28.4654 18.9388 27.5612C18.9204 25.9703 18.9014 24.326 19.0495 22.6982C19.0744 22.4245 19.1059 22.1335 19.1934 21.8487C19.3802 21.2388 19.5664 20.6898 19.7623 20.17C20.1271 19.2038 20.6977 18.2724 21.5069 17.3223C22.2692 16.4273 23.1459 15.6885 24.1134 15.1268C24.4405 14.9367 24.7672 14.7466 25.094 14.5562L25.1425 14.528C25.6924 14.2078 26.2424 13.8876 26.793 13.5687C27.8558 12.9529 28.7404 12.4426 29.5653 11.9694C29.5647 11.8868 29.5653 11.8065 29.5659 11.7324C29.567 11.6223 29.5676 11.5171 29.5647 11.4158C29.4529 11.3457 29.328 11.2762 29.1867 11.2054C28.7066 11.4791 28.2226 11.7613 27.7529 12.0349C27.4832 12.1922 27.2141 12.3489 26.9451 12.5049C26.657 12.6717 26.3659 12.8375 26.0844 12.9981L26.0802 13.0004C25.5443 13.3059 24.9904 13.6215 24.4562 13.9437L24.3939 13.9813C23.7614 14.3632 23.1076 14.7578 22.5193 15.1966C21.8612 15.6879 21.2519 16.289 20.6561 17.0339C19.9547 17.9103 19.4451 18.7434 19.0977 19.5811C19.0069 19.7994 18.7621 20.0104 18.4688 19.9914C18.2525 19.9779 18.065 19.8485 17.9424 19.6266C17.8998 19.549 17.8812 19.4769 17.8716 19.426C17.3676 18.3927 16.8035 17.5229 16.1474 16.7671C15.2075 15.6843 14.0742 14.7843 12.6829 14.0161C11.5801 13.4068 10.4785 12.7589 9.41373 12.1323C8.88969 11.8239 8.34924 11.506 7.81206 11.1943C7.68524 11.2608 7.56267 11.3339 7.44601 11.4122C7.43551 11.6023 7.43517 11.7872 7.44533 11.9631C7.78127 12.1601 8.12541 12.3554 8.45905 12.5449L8.46198 12.5465C8.7422 12.7055 9.03157 12.87 9.31702 13.0355C9.74082 13.2816 10.1688 13.5343 10.5831 13.7788L10.6067 13.7929C11.3097 14.2078 12.0333 14.6348 12.7511 15.039C14.0187 15.7525 15.1301 16.7475 16.0543 17.9964C16.9107 19.154 17.5088 20.4722 17.8326 21.9142C17.9611 22.4855 18.0355 23.1177 18.0608 23.8462C18.0853 24.5666 18.0801 25.2925 18.0748 25.9946V26.0132C18.0739 26.1233 18.0732 26.2348 18.0722 26.3469H18.0778V26.8876C18.0778 27.1954 18.0791 27.5031 18.0804 27.8105C18.084 28.6145 18.0876 29.4456 18.0663 30.2679C18.0657 30.2994 18.0673 30.3191 18.0689 30.3295C18.0775 30.3361 18.0935 30.3472 18.1217 30.3627C18.1561 30.3813 18.1909 30.4003 18.2256 30.4193L18.2757 30.4469H18.2764ZM17.8989 19.4808C17.8989 19.4808 17.8998 19.4827 17.9001 19.4834C17.8998 19.4824 17.8992 19.4814 17.8989 19.4808ZM7.35849 11.911C7.35849 11.911 7.36045 11.912 7.36142 11.9127C7.36045 11.912 7.35947 11.9114 7.35849 11.911ZM7.38439 11.4539C7.38439 11.4539 7.38175 11.4558 7.38014 11.4568C7.38141 11.4558 7.38273 11.4548 7.38439 11.4539Z" fill="#FF5C00"/>
<path d="M23.3445 28.3992C23.3196 28.4621 23.2914 25.4093 23.3599 23.9551C23.4238 22.5953 23.9053 21.3637 24.7849 20.2907C25.3834 19.5611 26.1349 19.0528 26.9339 18.59C27.2144 18.4275 27.4947 18.2649 27.7752 18.1024L27.7772 18.1014C28.5025 17.6809 29.228 17.2604 29.954 16.8409C29.9746 16.8288 29.9992 16.8236 30.034 16.8157C30.0376 16.8147 30.0415 16.814 30.0457 16.8131C30.0776 16.8059 30.1083 16.8298 30.1083 16.8622C30.1083 16.9926 30.1097 17.1221 30.1106 17.2502C30.1136 17.6222 30.1162 17.9864 30.1008 18.3501C30.093 18.5327 30.0389 18.7392 29.9353 18.884C29.8016 19.0709 29.6158 19.2377 29.4191 19.3579C29.1097 19.5474 28.7948 19.7283 28.4798 19.9092C28.0108 20.1786 27.5422 20.4476 27.0919 20.7446C26.2945 21.2706 25.7694 22.0247 25.4765 22.9431C25.3332 23.3908 25.2762 23.8404 25.2818 24.3061C25.2854 24.626 25.2838 24.9459 25.2818 25.2657C25.2798 25.642 25.2778 26.0185 25.2844 26.3948C25.2952 27.0162 24.6469 27.6258 24.4831 27.7398C24.4146 27.7877 24.3671 27.8224 24.3274 27.8519C24.1678 27.9692 24.1311 27.9965 23.3448 28.3982H23.3442L23.3445 28.3992Z" fill="#FF5C00"/>
<path d="M23.7712 28.7892C23.7234 28.8121 23.6736 28.84 23.627 28.8669C23.5074 28.936 23.3665 28.958 23.2314 28.9291H23.2291C23.1623 28.9144 22.828 28.821 22.7992 28.4018C22.7972 28.375 22.7956 28.336 22.7936 28.2855C22.7906 28.1963 22.7877 28.0715 22.7851 27.9145C22.7798 27.5868 22.7766 27.161 22.7759 26.7156C22.7752 26.1716 22.7779 24.8105 22.8192 23.9296C22.8883 22.4547 23.4091 21.1149 24.3664 19.9475C25.0491 19.1151 25.91 18.5576 26.6622 18.122L27.5032 17.6347C28.2304 17.2129 28.9564 16.7924 29.6823 16.3729C29.7744 16.3195 29.8593 16.3005 29.9156 16.288C30.0635 16.2549 30.2201 16.2736 30.3512 16.35C30.5377 16.4584 30.6475 16.6515 30.6481 16.8616C30.6481 16.991 30.6494 17.1192 30.6504 17.2467V17.2489C30.6534 17.6167 30.6563 17.9965 30.6403 18.3737C30.6271 18.6805 30.5301 18.9814 30.3741 19.1993C30.2034 19.4379 29.9642 19.6585 29.7007 19.8197C29.3824 20.0144 29.0599 20.1996 28.7479 20.3788C28.2924 20.6404 27.824 20.9095 27.3885 21.1969C26.7261 21.6337 26.2558 22.2771 25.9903 23.1082C25.8714 23.4802 25.8163 23.8702 25.8212 24.3009C25.8248 24.6293 25.8232 24.9547 25.8212 25.2697V25.2736C25.8193 25.6393 25.8173 26.0175 25.8238 26.3863C25.8393 27.2715 25.013 28.0299 24.7908 28.1846C24.7292 28.2275 24.6866 28.2589 24.6489 28.2868C24.4683 28.4199 24.4012 28.4644 23.7722 28.7873C23.7712 28.7876 23.7706 28.7886 23.7702 28.7892H23.7712ZM29.5718 17.6868C29.0635 17.9811 28.5559 18.2754 28.0482 18.5697L27.2049 19.0584C26.5029 19.4648 25.7747 19.937 25.2031 20.6338C24.3966 21.6174 23.958 22.7435 23.9 23.9807C23.8564 24.9078 23.8532 26.5298 23.8624 27.5153C23.9243 27.4779 23.959 27.4527 24.0069 27.4173C24.0498 27.3859 24.1006 27.3482 24.174 27.297C24.3133 27.1977 24.7495 26.7402 24.7439 26.4049C24.7371 26.0241 24.7394 25.6397 24.7413 25.2677V25.2634C24.743 24.9528 24.7446 24.6319 24.7413 24.3127C24.7351 23.7644 24.8069 23.2626 24.9616 22.7789C25.3037 21.7062 25.9205 20.8701 26.7943 20.2936C27.2577 19.9879 27.7408 19.7102 28.2081 19.4418C28.5162 19.2649 28.8321 19.0836 29.1373 18.8968C29.2779 18.8106 29.4086 18.6913 29.4961 18.5694C29.5243 18.5301 29.5568 18.4317 29.5614 18.3269C29.5702 18.1148 29.5728 17.9028 29.5728 17.6865L29.5718 17.6868ZM30.2253 17.3089C30.2253 17.3089 30.2241 17.3096 30.2234 17.3099C30.2241 17.3096 30.2247 17.3092 30.2253 17.3089Z" fill="#FF5C00"/>
<path d="M13.9925 28.399C13.2063 27.9972 13.1696 27.9703 13.01 27.8526C12.9703 27.8235 12.9228 27.7884 12.8543 27.7406C12.6904 27.6265 12.0422 27.0169 12.053 26.3955C12.0595 26.0193 12.0576 25.6427 12.0556 25.2665C12.054 24.9466 12.0523 24.6267 12.0556 24.3069C12.0612 23.8408 12.0042 23.3915 11.8609 22.9438C11.5679 22.0255 11.0429 21.2713 10.2455 20.7453C9.79521 20.4484 9.32655 20.179 8.85754 19.91C8.54261 19.729 8.22765 19.5481 7.91825 19.3587C7.7216 19.2384 7.53579 19.0716 7.40208 18.8848C7.29852 18.7399 7.24408 18.5331 7.23656 18.3509C7.22116 17.9874 7.2238 17.6233 7.22673 17.2513C7.22771 17.1229 7.22869 16.9934 7.22903 16.8629C7.22903 16.8305 7.26016 16.8069 7.29163 16.8138C7.29554 16.8148 7.2995 16.8154 7.30341 16.8164C7.33816 16.8243 7.36274 16.8295 7.38341 16.8417C8.10933 17.2612 8.83496 17.6817 9.56024 18.1021L9.5622 18.1031C9.84272 18.2657 10.1229 18.4283 10.4035 18.5908C11.2022 19.0532 11.954 19.5619 12.5525 20.2914C13.4324 21.3644 13.9136 22.5961 13.9774 23.9558C14.046 25.41 14.0178 28.4629 13.9929 28.4H13.9922L13.9925 28.399Z" fill="#FF5C00"/>
<path d="M13.5665 28.7893C13.5665 28.7893 13.5655 28.7876 13.5645 28.7873C12.9356 28.4645 12.8684 28.4199 12.6878 28.2868C12.6501 28.259 12.6072 28.2275 12.5459 28.1846C12.3237 28.0299 11.4975 27.2715 11.5129 26.3863C11.5194 26.0176 11.5175 25.6394 11.5155 25.2736V25.2697C11.5138 24.9547 11.5119 24.629 11.5155 24.3009C11.5204 23.8703 11.465 23.4802 11.3464 23.1083C11.0812 22.2768 10.611 21.6338 9.94828 21.1969C9.5127 20.9095 9.04437 20.6404 8.58881 20.3789C8.27682 20.1999 7.95432 20.0144 7.63608 19.8197C7.37257 19.6585 7.13335 19.438 6.96259 19.1993C6.8066 18.9814 6.70959 18.6805 6.69645 18.3738C6.68041 17.9965 6.68335 17.6167 6.68628 17.249V17.2467C6.6873 17.1192 6.68828 16.9911 6.68858 16.8616C6.68892 16.6519 6.79903 16.4585 6.98552 16.35C7.11663 16.2739 7.27327 16.2553 7.4211 16.2881C7.47745 16.3005 7.56233 16.3195 7.65445 16.373C8.38071 16.7925 9.1063 17.2133 9.83358 17.6347L10.6745 18.1221C11.4267 18.5577 12.288 19.1151 12.9703 19.9476C13.9277 21.1149 14.4481 22.4548 14.5176 23.9296C14.5589 24.8105 14.5615 26.1713 14.5608 26.7156C14.5602 27.1607 14.5569 27.5865 14.5517 27.9145C14.549 28.0715 14.5461 28.1964 14.5431 28.2855C14.5415 28.336 14.5396 28.3753 14.5376 28.4019C14.5091 28.821 14.1744 28.9141 14.1076 28.9285H14.1053C13.9703 28.9577 13.8293 28.9358 13.7097 28.8666C13.6632 28.8397 13.6134 28.8119 13.5655 28.7889L13.5665 28.7893ZM7.77736 18.3272C7.78191 18.4318 7.81436 18.5301 7.84256 18.5698C7.92974 18.6917 8.06051 18.811 8.20141 18.8972C8.50656 19.084 8.8225 19.2652 9.13058 19.4422C9.59793 19.7106 10.081 19.9882 10.5444 20.294C11.4185 20.8705 12.035 21.7069 12.3771 22.7792C12.5318 23.2633 12.6039 23.765 12.5974 24.313C12.5938 24.6322 12.5954 24.9531 12.5974 25.2638V25.2681C12.5994 25.6397 12.6013 26.0245 12.5948 26.4053C12.5888 26.7406 13.0254 27.1981 13.1647 27.2974C13.2381 27.3485 13.2889 27.3862 13.3318 27.4177C13.3797 27.4531 13.4144 27.4783 13.4764 27.5157C13.4855 26.5305 13.4822 24.9085 13.4387 23.981C13.3806 22.7438 12.9421 21.6177 12.1356 20.6342C11.5643 19.9374 10.8358 19.4651 10.1337 19.0587L9.29049 18.5701C8.78282 18.2758 8.27516 17.9815 7.76685 17.6872C7.76685 17.9038 7.76949 18.1159 7.77834 18.3276L7.77736 18.3272ZM7.11434 17.3099C7.11434 17.3099 7.11302 17.3093 7.11238 17.309C7.11302 17.3093 7.11366 17.3096 7.11434 17.3099Z" fill="#FF5C00"/>
</g>
<circle cx="18.5" cy="18.5" r="17.5" stroke="#1BE3C2" stroke-width="2"/>
<defs>
<clipPath id="clip0_6674_10078">
<rect width="37" height="37" fill="white"/>
</clipPath>
</defs>
</svg>
