<svg xmlns="http://www.w3.org/2000/svg" width="37" height="37" fill="none"><g xmlns="http://www.w3.org/2000/svg" transform="scale(1.15625)"><g clip-path="url(#a)"><path fill="#051212" d="M16 32c8.867 0 16-7.133 16-16S24.867 0 16 0 0 7.133 0 16s7.133 16 16 16"/><path fill="url(#b)" d="M16 32c8.867 0 16-7.133 16-16S24.867 0 16 0 0 7.133 0 16s7.133 16 16 16"/><path fill="url(#c)" d="M2.4 16c0 3.682 1.473 7.01 3.846 9.453l.232.234a13.57 13.57 0 0 0 9.184 3.909L16 29.6a13.56 13.56 0 0 0 9.283-3.684l.238-.229C28.03 23.224 29.6 19.801 29.6 16s-1.57-7.224-4.079-9.687l-.238-.229A13.56 13.56 0 0 0 16 2.4V2l.349.004a13.97 13.97 0 0 1 9.207 3.788l.246.235c2.5 2.455 4.096 5.84 4.193 9.607L30 16c0 3.791-1.517 7.218-3.959 9.732l-.239.24C23.212 28.515 19.726 30 16 30l-.348-.004a13.97 13.97 0 0 1-9.454-4.024C3.617 23.438 2 19.913 2 16l.005-.366c.097-3.767 1.693-7.152 4.193-9.607l.245-.235A13.96 13.96 0 0 1 16 2v.4c-3.619 0-7.005 1.442-9.522 3.913l-.232.233A13.53 13.53 0 0 0 2.4 16"/><path fill="#21F1A6" d="M.4 16c0 4.224 1.69 8.041 4.411 10.844l.267.268c2.796 2.745 6.53 4.384 10.534 4.483L16 31.6c4.021 0 7.792-1.552 10.648-4.226l.274-.262C29.799 24.287 31.6 20.36 31.6 16s-1.8-8.287-4.678-11.112l-.274-.262C23.792 1.953 20.021.4 16 .4V0l.398.005a15.96 15.96 0 0 1 10.524 4.329l.28.269c2.858 2.805 4.681 6.674 4.792 10.979L32 16c0 4.333-1.734 8.249-4.525 11.122l-.273.275C24.242 30.303 20.258 32 16 32l-.398-.005c-4.109-.102-7.938-1.783-10.804-4.598C1.848 24.501 0 20.472 0 16l.005-.418c.112-4.305 1.935-8.174 4.793-10.98l.28-.268C8.006 1.593 11.874 0 16 0v.4C11.85.4 7.964 2.054 5.078 4.888l-.267.268C2.09 7.96.4 11.776.4 16"/><path fill="url(#d)" d="M30 16c0-3.787-1.514-7.212-3.959-9.73l-.24-.24c-2.513-2.468-5.863-3.936-9.453-4.026L16 2c-3.604 0-6.988 1.39-9.555 3.794l-.246.236C3.613 8.568 2 12.09 2 16s1.613 7.432 4.198 9.97C8.794 28.517 12.28 30 16 30v1.6l-.389-.005a15.56 15.56 0 0 1-10.26-4.22l-.273-.263C2.202 24.288.4 20.361.4 16c0-4.225 1.691-8.043 4.412-10.844l.266-.268C7.963 2.055 11.848.4 16 .4l.388.005c4.006.1 7.74 1.739 10.534 4.483C29.798 7.712 31.6 11.639 31.6 16s-1.802 8.288-4.678 11.112l-.273.262C23.794 30.047 20.023 31.6 16 31.6V30c3.721 0 7.207-1.482 9.802-4.03l.239-.24C28.486 23.21 30 19.787 30 16"/><path fill="#051212" d="M16 5.6c2.768 0 5.358 1.103 7.282 2.992A10.35 10.35 0 0 1 26.4 16c0 2.907-1.201 5.526-3.118 7.408A10.38 10.38 0 0 1 16 26.4a10.38 10.38 0 0 1-7.281-2.992A10.35 10.35 0 0 1 5.6 16a10.35 10.35 0 0 1 3.119-7.408 10.38 10.38 0 0 1 7.28-2.992"/><path fill="url(#e)" d="M26 16a9.95 9.95 0 0 0-2.828-6.95l-.17-.173a9.98 9.98 0 0 0-6.753-2.874L16 6a9.97 9.97 0 0 0-6.826 2.71L9 8.876A9.95 9.95 0 0 0 6 16a9.95 9.95 0 0 0 2.999 7.123l.175.168A9.97 9.97 0 0 0 16 26.001v.4l-.259-.004a10.38 10.38 0 0 1-6.84-2.814l-.182-.175a10.35 10.35 0 0 1-3.115-7.136L5.6 16c0-2.816 1.127-5.361 2.941-7.23l.178-.178A10.38 10.38 0 0 1 16 5.6l.259.003a10.38 10.38 0 0 1 7.023 2.989A10.35 10.35 0 0 1 26.4 16l-.003.272a10.35 10.35 0 0 1-3.115 7.136l-.183.175A10.37 10.37 0 0 1 16 26.4V26c2.66 0 5.15-1.06 7.001-2.877l.171-.172A9.95 9.95 0 0 0 26 16"/><path fill="#21F1A6" d="M20 18.38c0-2.15-1.254-2.886-3.761-3.193-1.791-.246-2.15-.737-2.15-1.597s.598-1.413 1.792-1.413c1.074 0 1.671.369 1.97 1.29a.45.45 0 0 0 .418.307h.955a.414.414 0 0 0 .418-.43v-.061c-.24-1.351-1.314-2.395-2.687-2.518V9.291c0-.245-.179-.43-.477-.491h-.896c-.239 0-.418.184-.478.491v1.413c-1.79.245-2.925 1.473-2.925 3.009 0 2.026 1.194 2.825 3.702 3.132 1.671.307 2.209.675 2.209 1.658s-.836 1.658-1.97 1.658c-1.553 0-2.09-.676-2.27-1.597-.059-.245-.238-.368-.417-.368h-1.015a.414.414 0 0 0-.418.43v.061c.239 1.535 1.194 2.64 3.164 2.948v1.474c0 .245.18.43.478.49h.895c.24 0 .418-.183.478-.49v-1.474C18.806 21.328 20 20.038 20 18.38"/></g><defs><linearGradient id="b" x1="0" x2="32" y1="16" y2="16" gradientUnits="userSpaceOnUse"><stop stop-color="#97FCE4"/><stop offset="1" stop-color="#97FCE4" stop-opacity=".2"/></linearGradient><linearGradient id="c" x1="1.365" x2="27.602" y1="16.36" y2="16.36" gradientUnits="userSpaceOnUse"><stop stop-color="#21F1A6" stop-opacity=".6"/><stop offset="1" stop-color="#21F1A6" stop-opacity=".2"/></linearGradient><linearGradient id="d" x1="32.308" x2="-20.4" y1="15.598" y2="15.598" gradientUnits="userSpaceOnUse"><stop stop-color="#051212"/><stop offset="1" stop-color="#051212" stop-opacity=".76"/></linearGradient><linearGradient id="e" x1="26.872" x2="7.382" y1="15.732" y2="15.732" gradientUnits="userSpaceOnUse"><stop stop-color="#21F1A6"/><stop offset="1" stop-color="#21F1A6" stop-opacity="0"/></linearGradient><clipPath id="a"><path fill="#fff" d="M0 0h32v32H0z"/></clipPath></defs></g><circle cx="18.5" cy="18.5" r="17.5" stroke="#1BE3C2" stroke-width="2"/></svg>