<svg width="37" height="37" viewBox="0 0 37 37" xmlns="http://www.w3.org/2000/svg"><g xmlns="http://www.w3.org/2000/svg" width="37" height="37" viewBox="0 0 37 37" transform="translate(0.0000659839527027027, 0.21591598923141891) scale(0.14453125, 0.14453125)"><path fill="#FCFDFE" d="M210.574 29.184A303 303 0 0 1 218 36l2.273 2.078C236.563 53.511 247.121 74.566 253 96l1.027 3.559c7.927 33.349.246 68.482-17.027 97.441-4.929 7.648-10.763 14.397-17 21l-2.078 2.273C202.489 236.563 181.434 247.121 160 253l-3.559 1.027C123.092 261.954 87.96 254.273 59 237c-7.648-4.929-14.397-10.763-21-17l-2.273-2.078C19.437 202.489 8.879 181.434 3 160l-1.027-3.559C-5.954 123.092 1.727 87.96 19 59c4.929-7.648 10.763-14.397 17-21l2.078-2.273C53.511 19.437 74.566 8.879 96 3l3.559-1.027c38.48-9.146 81.094 1.83 111.015 27.21"></path><path fill="#055FCA" d="M210.574 29.184A303 303 0 0 1 218 36l2.273 2.078C236.563 53.511 247.121 74.566 253 96l1.027 3.559c7.927 33.349.246 68.482-17.027 97.441-4.929 7.648-10.763 14.397-17 21l-2.078 2.273C202.489 236.563 181.434 247.121 160 253l-3.559 1.027C123.092 261.954 87.96 254.273 59 237c-7.648-4.929-14.397-10.763-21-17l-2.273-2.078C19.437 202.489 8.879 181.434 3 160l-1.027-3.559C-5.954 123.092 1.727 87.96 19 59c4.929-7.648 10.763-14.397 17-21l2.078-2.273C53.511 19.437 74.566 8.879 96 3l3.559-1.027c38.48-9.146 81.094 1.83 111.015 27.21M94 13l-2.086.666C73.457 19.725 58.076 29.676 44 43l-2.379 2.219C26.007 60.225 14.857 81.786 11 103l-.51 2.566C4.725 136.463 10.647 167.777 28 194c9.048 13.16 20.24 25.698 34 34l3.234 1.98C77.137 237.11 89.278 242.505 103 245l2.566.51c30.897 5.765 62.211-.157 88.434-17.51 13.165-9.051 25.687-20.241 34-34l1.98-3.2c16.107-26.654 22.173-59.633 15.055-90.222C238.67 78.576 228.847 60.742 213 44l-2.219-2.379C193.747 23.897 170.8 14.378 147 10l-2.856-.533C127.755 7.031 109.794 7.9 94 13"></path><path fill="#0D64CC" d="M114 35h6v18h12V35h6v18l6.125.688C157.675 55.643 171.672 60.74 182 70l-2 4c-4.296 0-4.74-.252-7.937-2.687-5.64-3.914-11.57-6.174-18.063-8.313l-2.844-.977c-14.168-4.075-33.89-4.9-47.156 1.977l-2.715 1.355C91.127 70.92 85.635 79.093 82 90c-1.08 13.513-.874 27.034 8 38 8.99 9.386 18.506 13.93 31.516 14.238 2.889.05 5.774.074 8.664.065 7.119.152 7.119.152 10.93 3.115 3.052 4.17 3.43 7.486 2.89 12.582-1.798 4.258-3.811 6.124-8 8-3.837.476-7.638.473-11.5.438l-3.25-.012c-8.801-.16-16.304-1.453-24.25-5.426.813-1.937.813-1.937 2-4 3.631-1.21 4.813-.623 8.438.438 6.136 1.513 11.936 1.87 18.25 1.875l2.683.015c4.828.215 4.828.215 8.629-2.328.25-3.042.25-3.042 0-6-1.563-1.563-3.133-1.164-5.305-1.21-16.071-.472-31.45-1.968-44.007-13.29-10.99-11.93-13.386-26.788-13.067-42.34.61-12.077 7.09-21.274 15.629-29.347C97.7 58.45 104.396 56.134 114 54z"></path><path fill="#0D64CC" d="m128.813 88.563 2.821-.01c9.2.157 17.117 2.322 25.366 6.447-1.75 3.875-1.75 3.875-4 5-1.988-.523-1.988-.523-4.312-1.375-6.56-2.384-12.444-2.807-19.375-2.812l-2.627-.038-2.51-.005-2.284-.013c-2.135.078-2.135.078-3.892 2.243-.242 1.981-.242 1.981-.125 4.125L118 106l2.089.028c18.374.313 33.427.582 47.65 13.558 10.264 10.875 12.893 24.526 12.573 38.86-.64 12.786-6.276 23.312-15.48 31.995C157.264 196.881 148.002 201 138 201v20h-6v-18h-12v18h-6v-19l-5.687-.687C95.613 199.303 84.799 194.287 75 186c-1.363-2.277-1.363-2.277-2-4h2v-2c3.261 1.55 6.25 3.403 9.313 5.313 16.855 9.882 39.448 13.127 58.636 9.003A49.5 49.5 0 0 0 151 191l2.68-1.285C164.82 183.78 169.162 174.513 173 163c1.291-12.576.431-24.227-6.984-34.84-4.842-5.846-9.946-9.462-17.016-12.16l-2.55-1.102c-6.096-1.587-12.414-1.258-18.684-1.289-6.173-.138-10.155-.317-14.766-4.609-2.728-3.982-2.683-8.337-2-13 4.383-7.356 9.971-7.416 17.813-7.437"></path><path fill="#0D64CC" d="M169.777 74.473c2.4 1.65 3.21 2.833 4.223 5.527l-4 3-2.5-1.39c-16.927-8.993-35.095-12.53-54.168-8.915-7.58 2.488-13.087 6.775-17.27 13.555-3.698 8.11-3.55 18.426-1.175 26.922 3.108 6.815 8.015 10.763 14.113 14.828 6.537 2.165 13.123 2.224 19.938 2.313 15.262.485 15.262.485 21.062 5.687 6.317 7.643 6.751 15.33 6 25-1.611 6.183-5.68 10.603-11 14-6.404 3.572-12.395 3.501-19.625 3.438l-3.521-.02c-8.293-.15-15.242-.938-22.854-4.418l-2.473-1.05C93.02 171.346 91.17 170.254 89 167l3-3c6 2 6 2 8.156 2.73l2.281.77 2.122.719L107 169l3.07 1.07c5.045 1.418 10.164 1.298 15.368 1.305l3.025.074c6.317.025 11.333-.664 16.537-4.449 4.242-5.09 4.629-9.574 4.383-16.121-.576-4.33-1.624-6.466-4.383-9.879-5.482-3.704-10.87-3.443-17.25-3.5-11.692-.107-21.603-1.74-30.75-9.5-7.221-7.623-10.762-16.363-10.625-26.812l.023-2.646c.32-9.382 3.541-16.38 9.727-23.417 19.918-18.18 51.91-11.449 73.652-.652"></path><path fill="#0D64CC" d="m129.438 76.688 2.658-.01c8.49.069 16.422 1.39 24.279 4.697l2.96 1.21C162.114 84.06 163.91 85.673 166 88c-1.187 1.563-1.187 1.563-3 3-5.214-.599-9.924-2.885-14.746-4.844-6.475-2.3-12.828-2.397-19.629-2.469l-2.75-.087c-7.517-.07-12.933 1.531-18.375 6.838-2.72 6.457-2.516 13.513-.312 20.124 2.76 3.714 5.411 5.971 9.812 7.438 1.801.103 3.606.155 5.41.176l3.252.072q3.36.064 6.719.094c10.213.261 18.263 2.557 25.799 9.666 8.27 9.05 10.43 17.707 10.12 29.726-.512 9.576-4.184 16.254-10.804 23.102-9.523 8.256-20.622 9.513-32.746 9.476l-3.2.05c-10.858.006-20.49-2.283-30.112-7.3l-2.073-1.013c-3.652-1.857-6.254-3.487-8.365-7.049l3-3c5.337 2.01 10.287 4.7 15.332 7.344 8.141 3.87 16.035 4.05 24.918 4.094l3.488.1c9.484.058 17.848-1.86 25.262-8.038l2-2.5 2.188-2.437c5-7.071 4.375-15.262 3.812-23.563-1.157-6.153-4.621-11.582-9-16-5.39-3.603-10.699-5.084-17.14-5.21-.99-.03-1.978-.058-2.997-.087q-3.09-.078-6.18-.133c-9.072-.282-16.088-1.825-22.683-8.57-4.774-5.84-4.775-12.982-4.45-20.207.802-6.762 3.588-9.889 8.2-14.606 7.14-4.805 14.235-5.654 22.688-5.5"></path></g><circle cx="18.5" cy="18.5" r="17.5" stroke="#1BE3C2" stroke-width="2" fill="none"></circle></svg>