<svg width="37" height="37" viewBox="0 0 37 37" fill="none" xmlns="http://www.w3.org/2000/svg">
<rect width="37" height="37" rx="18.5" fill="#162E2F"/>
<mask id="mask0_5030_5111" style="mask-type:alpha" maskUnits="userSpaceOnUse" x="0" y="0" width="38" height="38">
<circle cx="19.0714" cy="18.5195" r="18.5" fill="#D9D9D9"/>
</mask>
<g mask="url(#mask0_5030_5111)">
<path d="M-6.92896 8.5083L19.4019 8.5083L19.4437 11.269L21.6929 12.3527L23.2161 14.0297V21.28V23.1665L21.6929 24.9309L19.4019 26.3538V28.5303H-6.92896V8.5083Z" fill="url(#paint0_linear_5030_5111)"/>
<rect x="0.0500488" y="11.6079" width="16.2827" height="13.8047" fill="url(#paint1_linear_5030_5111)"/>
</g>
<path fill-rule="evenodd" clip-rule="evenodd" d="M20.536 10.1702C23.3682 10.4214 25.6106 11.3009 25.8595 13.9214L25.8608 13.9206C26.0462 15.8386 25.2508 16.9873 23.9788 17.6431C26.0722 18.1534 27.3832 19.4074 27.1232 22.2201C26.8026 25.7122 24.2201 26.6482 20.5322 26.8601V28.5097H18.3387V26.9092C17.7702 26.91 17.1875 26.9047 16.5866 26.8915V28.5092H14.3951V26.8523C13.8826 26.849 11.5181 26.8386 10.9868 26.8386L11.003 24.916H12.8324V12.1353L11.0023 12.1249L11.0089 10.1748C11.0089 10.1748 13.9256 10.1773 14.4002 10.1682V8.49023H16.5919V10.0968C17.1779 10.0856 17.7669 10.0745 18.3433 10.0745V8.4915H20.536V10.1702ZM17.0637 24.2199C18.8604 24.2457 22.7868 24.3024 22.7868 21.7812H22.7848C22.7842 19.2023 19.0073 19.2919 17.168 19.3355C16.9642 19.3403 16.7839 19.3446 16.6355 19.3446V24.2153C16.758 24.2153 16.9021 24.2174 17.0637 24.2199ZM17.0009 17.1195C18.5008 17.1445 21.769 17.1995 21.769 14.9085C21.7703 12.5655 18.6284 12.6478 17.091 12.6884C16.9176 12.6929 16.7644 12.6967 16.6388 12.6967V17.1151C16.7421 17.1151 16.8641 17.1172 17.0009 17.1195Z" fill="#C3FCF1"/>
<path d="M29 37C33.4183 37 37 33.4183 37 29C37 24.5817 33.4183 21 29 21C24.5817 21 21 24.5817 21 29C21 33.4183 24.5817 37 29 37Z" fill="#FF931E"/>
<path d="M28.8193 27.59L29.9802 27.9736C30.2614 28.0674 30.4149 28.3708 30.3211 28.6521C30.2273 28.9333 29.9239 29.0867 29.6426 28.993L28.4818 28.6094C28.2005 28.5157 28.0471 28.2123 28.1408 27.931C28.2346 27.6497 28.538 27.4963 28.8193 27.59Z" fill="white"/>
<path d="M28.359 28.9777L29.5198 29.3613C29.8011 29.455 29.9545 29.7585 29.8608 30.0398C29.767 30.321 29.4636 30.4744 29.1823 30.3807L28.0214 29.9971C27.7402 29.9034 27.5867 29.5999 27.6805 29.3187C27.7743 29.0374 28.0777 28.884 28.359 28.9777Z" fill="white"/>
<path d="M29.4074 26.2453L30.3075 26.5436C30.5888 26.6374 30.7422 26.9408 30.6484 27.2221C30.5547 27.5034 30.2512 27.6568 29.97 27.563L29.0699 27.2647C28.7886 27.171 28.6352 26.8675 28.729 26.5863C28.8227 26.305 29.1262 26.1516 29.4074 26.2453Z" fill="white"/>
<path d="M30.1268 24.9445L30.5069 25.0707C30.7882 25.1644 30.9416 25.4679 30.8479 25.7491C30.7541 26.0304 30.4507 26.1838 30.1694 26.0901L29.7893 25.9639C29.508 25.8702 29.3546 25.5667 29.4483 25.2855C29.5421 25.0042 29.8455 24.8508 30.1268 24.9445Z" fill="white"/>
<path d="M30.5632 23.6218L30.9433 23.7479C31.2246 23.8417 31.378 24.1451 31.2843 24.4264C31.1905 24.7077 30.8871 24.8611 30.6058 24.7673L30.2257 24.6412C29.9444 24.5474 29.791 24.244 29.8847 23.9627C29.9785 23.6814 30.2819 23.528 30.5632 23.6218Z" fill="white"/>
<path d="M31.107 28.3418L30.5973 28.1731C30.5785 28.1662 30.5581 28.1611 30.5393 28.1577C30.7848 28.2702 30.7814 28.5089 30.6944 28.7714C30.6075 29.0339 30.4677 29.2265 30.2052 29.172C30.224 29.1805 30.2427 29.1873 30.2615 29.1942L30.7711 29.3629C31.0524 29.4567 31.3576 29.3033 31.4496 29.022C31.5434 28.7407 31.3899 28.4356 31.1087 28.3435L31.107 28.3418Z" fill="white"/>
<path d="M30.7301 29.8286L30.2204 29.6599C30.2017 29.6531 30.1812 29.6479 30.1625 29.6445C30.408 29.757 30.4045 29.9957 30.3176 30.2582C30.2307 30.5207 30.0909 30.7134 29.8284 30.6588C29.8471 30.6673 29.8659 30.6741 29.8846 30.681L30.3943 30.8497C30.6756 30.9435 30.9807 30.7901 31.0728 30.5088C31.1665 30.2275 31.0131 29.9224 30.7318 29.8303L30.7301 29.8286Z" fill="white"/>
<path d="M31.4529 26.917L30.9432 26.7483C30.9245 26.7414 30.904 26.7363 30.8853 26.7329C31.1307 26.8454 31.1273 27.0841 31.0404 27.3466C30.9534 27.6091 30.8137 27.8017 30.5511 27.7472C30.5699 27.7557 30.5886 27.7625 30.6074 27.7693L31.1171 27.9381C31.3984 28.0319 31.7035 27.8784 31.7956 27.5972C31.8893 27.3159 31.7359 27.0108 31.4546 26.9187L31.4529 26.917Z" fill="white"/>
<path d="M31.5877 25.4238L31.078 25.2551C31.0592 25.2483 31.0388 25.2432 31.02 25.2397C31.2655 25.3523 31.2621 25.5909 31.1752 25.8534C31.0882 26.1159 30.9484 26.3086 30.6859 26.254C30.7047 26.2625 30.7234 26.2694 30.7422 26.2762L31.2519 26.4449C31.5331 26.5387 31.8383 26.3853 31.9303 26.104C32.0241 25.8227 31.8707 25.5176 31.5894 25.4256L31.5877 25.4238Z" fill="white"/>
<path d="M28.7374 25.6126L29.2471 25.7814C29.2658 25.7882 29.2863 25.7933 29.305 25.7967C29.0596 25.6842 29.063 25.4456 29.1499 25.183C29.2368 24.9205 29.3766 24.7279 29.6391 24.7824C29.6204 24.7739 29.6016 24.7671 29.5829 24.7603L29.0732 24.5915C28.7919 24.4978 28.4868 24.6512 28.3947 24.9324C28.301 25.2137 28.4544 25.5189 28.7357 25.6109L28.7374 25.6126Z" fill="white"/>
<path d="M27.9959 26.9085L28.5056 27.0773C28.5244 27.0841 28.5448 27.0892 28.5636 27.0926C28.3181 26.9801 28.3215 26.7414 28.4084 26.4789C28.4954 26.2164 28.6352 26.0238 28.8977 26.0783C28.8789 26.0698 28.8602 26.063 28.8414 26.0562L28.3317 25.8874C28.0505 25.7937 27.7453 25.9471 27.6533 26.2283C27.5595 26.5096 27.7129 26.8147 27.9942 26.9068L27.9959 26.9085Z" fill="white"/>
<path d="M27.3618 28.2381L27.8715 28.4069C27.8902 28.4137 27.9107 28.4188 27.9294 28.4222C27.6839 28.3097 27.6874 28.071 27.7743 27.8085C27.8612 27.546 28.001 27.3534 28.2635 27.4079C28.2448 27.3994 28.226 27.3926 28.2073 27.3858L27.6976 27.217C27.4163 27.1232 27.1112 27.2767 27.0191 27.5579C26.9254 27.8392 27.0788 28.1443 27.3601 28.2364L27.3618 28.2381Z" fill="white"/>
<path d="M27.7062 35.4402C27.5187 35.4402 27.309 35.4095 27.084 35.3515C26.547 35.2118 26.2027 34.9561 26.0595 34.5947C25.9333 34.2776 26.0015 33.9708 26.0765 33.7781C25.4032 32.8798 25.0776 32.2218 25.0247 31.6626C24.9702 31.0813 25.2174 30.7029 25.4577 30.3364C25.5805 30.1506 25.7066 29.958 25.7969 29.7295C25.9981 29.2233 25.7646 28.1681 25.6674 27.9993C25.6827 28.0249 25.3691 27.4862 25.485 27.4947H25.9112C26.6612 27.5459 27.2459 27.8408 27.6482 28.3743C28.2176 29.1295 28.2841 30.1966 28.2431 30.945C28.4085 30.8274 28.596 30.7114 28.7989 30.6023C29.416 30.2699 30.0313 30.0671 30.4899 30.079C30.9484 30.0909 30.6757 30.0875 30.7592 30.1029C31.1837 30.183 31.39 30.4046 31.4905 30.5751C31.7241 30.9791 31.5758 31.4427 31.557 31.4939L31.4053 31.932L31.0661 31.6251C31.0252 31.591 30.8837 31.4956 30.7592 31.4956C30.5598 31.4956 30.3893 31.8024 30.2904 32.336C30.1268 33.2224 29.7023 33.6997 29.375 33.9435C29.2097 34.0662 29.0529 34.1446 28.9267 34.1941C28.9267 34.4481 28.8688 34.7924 28.6318 35.0652C28.4818 35.2356 28.2022 35.4402 27.7113 35.4402H27.7062Z" fill="#FF931E"/>
<path d="M26.431 33.7406C26.431 33.7406 25.8276 34.7054 27.1589 35.0549C28.4903 35.4043 28.6744 34.5162 28.5994 33.9707C28.5994 33.9707 29.7006 33.8105 29.9819 32.2831C30.3006 30.5563 31.2604 31.3967 31.2604 31.3967C31.2604 31.3967 31.5331 30.65 30.6791 30.5085C29.825 30.367 28.0982 31.4359 27.7607 32.0223C27.7607 32.0223 28.3658 28.1595 25.8838 27.8032C25.9998 27.8135 26.3458 29.167 26.0765 29.8437C25.6179 30.9978 24.4587 31.1785 26.4293 33.7423H26.431V33.7406Z" fill="white"/>
<path d="M27.5084 33.7595C27.5084 33.7595 28.1818 34.1141 29.5745 33.8601C30.9672 33.6061 31.1854 33.9504 31.1854 33.9504L29.5745 34.213C29.5745 34.213 28.0283 34.5334 27.5084 33.7578V33.7595Z" fill="#FF931E"/>
<path d="M28.2635 30.5103L28.7033 30.6552L28.2124 31.008L28.2635 30.5103Z" fill="white"/>
<circle cx="18.5" cy="18.5" r="17.5" stroke="#1BE3C2" stroke-width="2"/>
<path d="M29 37C33.4183 37 37 33.4183 37 29C37 24.5817 33.4183 21 29 21C24.5817 21 21 24.5817 21 29C21 33.4183 24.5817 37 29 37Z" fill="#FF931E"/>
<path d="M28.8193 27.59L29.9802 27.9736C30.2614 28.0674 30.4149 28.3708 30.3211 28.6521C30.2273 28.9333 29.9239 29.0867 29.6426 28.993L28.4818 28.6094C28.2005 28.5157 28.0471 28.2123 28.1408 27.931C28.2346 27.6497 28.538 27.4963 28.8193 27.59Z" fill="white"/>
<path d="M28.359 28.9777L29.5198 29.3613C29.8011 29.455 29.9545 29.7585 29.8608 30.0398C29.767 30.321 29.4636 30.4744 29.1823 30.3807L28.0214 29.9971C27.7402 29.9034 27.5867 29.5999 27.6805 29.3187C27.7743 29.0374 28.0777 28.884 28.359 28.9777Z" fill="white"/>
<path d="M29.4074 26.2453L30.3075 26.5436C30.5888 26.6374 30.7422 26.9408 30.6484 27.2221C30.5547 27.5034 30.2512 27.6568 29.97 27.563L29.0699 27.2647C28.7886 27.171 28.6352 26.8675 28.729 26.5863C28.8227 26.305 29.1262 26.1516 29.4074 26.2453Z" fill="white"/>
<path d="M30.1268 24.9445L30.5069 25.0707C30.7882 25.1644 30.9416 25.4679 30.8479 25.7491C30.7541 26.0304 30.4507 26.1838 30.1694 26.0901L29.7893 25.9639C29.508 25.8702 29.3546 25.5667 29.4483 25.2855C29.5421 25.0042 29.8455 24.8508 30.1268 24.9445Z" fill="white"/>
<path d="M30.5632 23.6218L30.9433 23.7479C31.2246 23.8417 31.378 24.1451 31.2843 24.4264C31.1905 24.7077 30.8871 24.8611 30.6058 24.7673L30.2257 24.6412C29.9444 24.5474 29.791 24.244 29.8847 23.9627C29.9785 23.6814 30.2819 23.528 30.5632 23.6218Z" fill="white"/>
<path d="M31.107 28.3418L30.5973 28.1731C30.5785 28.1662 30.5581 28.1611 30.5393 28.1577C30.7848 28.2702 30.7814 28.5089 30.6944 28.7714C30.6075 29.0339 30.4677 29.2265 30.2052 29.172C30.224 29.1805 30.2427 29.1873 30.2615 29.1942L30.7711 29.3629C31.0524 29.4567 31.3576 29.3033 31.4496 29.022C31.5434 28.7407 31.3899 28.4356 31.1087 28.3435L31.107 28.3418Z" fill="white"/>
<path d="M30.7301 29.8286L30.2204 29.6599C30.2017 29.6531 30.1812 29.6479 30.1625 29.6445C30.408 29.757 30.4045 29.9957 30.3176 30.2582C30.2307 30.5207 30.0909 30.7134 29.8284 30.6588C29.8471 30.6673 29.8659 30.6741 29.8846 30.681L30.3943 30.8497C30.6756 30.9435 30.9807 30.7901 31.0728 30.5088C31.1665 30.2275 31.0131 29.9224 30.7318 29.8303L30.7301 29.8286Z" fill="white"/>
<path d="M31.4529 26.917L30.9432 26.7483C30.9245 26.7414 30.904 26.7363 30.8853 26.7329C31.1307 26.8454 31.1273 27.0841 31.0404 27.3466C30.9534 27.6091 30.8137 27.8017 30.5511 27.7472C30.5699 27.7557 30.5886 27.7625 30.6074 27.7693L31.1171 27.9381C31.3984 28.0319 31.7035 27.8784 31.7956 27.5972C31.8893 27.3159 31.7359 27.0108 31.4546 26.9187L31.4529 26.917Z" fill="white"/>
<path d="M31.5877 25.4238L31.078 25.2551C31.0592 25.2483 31.0388 25.2432 31.02 25.2397C31.2655 25.3523 31.2621 25.5909 31.1752 25.8534C31.0882 26.1159 30.9484 26.3086 30.6859 26.254C30.7047 26.2625 30.7234 26.2694 30.7422 26.2762L31.2519 26.4449C31.5331 26.5387 31.8383 26.3853 31.9303 26.104C32.0241 25.8227 31.8707 25.5176 31.5894 25.4256L31.5877 25.4238Z" fill="white"/>
<path d="M28.7374 25.6126L29.2471 25.7814C29.2658 25.7882 29.2863 25.7933 29.305 25.7967C29.0596 25.6842 29.063 25.4456 29.1499 25.183C29.2368 24.9205 29.3766 24.7279 29.6391 24.7824C29.6204 24.7739 29.6016 24.7671 29.5829 24.7603L29.0732 24.5915C28.7919 24.4978 28.4868 24.6512 28.3947 24.9324C28.301 25.2137 28.4544 25.5189 28.7357 25.6109L28.7374 25.6126Z" fill="white"/>
<path d="M27.9959 26.9085L28.5056 27.0773C28.5244 27.0841 28.5448 27.0892 28.5636 27.0926C28.3181 26.9801 28.3215 26.7414 28.4084 26.4789C28.4954 26.2164 28.6352 26.0238 28.8977 26.0783C28.8789 26.0698 28.8602 26.063 28.8414 26.0562L28.3317 25.8874C28.0505 25.7937 27.7453 25.9471 27.6533 26.2283C27.5595 26.5096 27.7129 26.8147 27.9942 26.9068L27.9959 26.9085Z" fill="white"/>
<path d="M27.3618 28.2381L27.8715 28.4069C27.8902 28.4137 27.9107 28.4188 27.9294 28.4222C27.6839 28.3097 27.6874 28.071 27.7743 27.8085C27.8612 27.546 28.001 27.3534 28.2635 27.4079C28.2448 27.3994 28.226 27.3926 28.2073 27.3858L27.6976 27.217C27.4163 27.1232 27.1112 27.2767 27.0191 27.5579C26.9254 27.8392 27.0788 28.1443 27.3601 28.2364L27.3618 28.2381Z" fill="white"/>
<path d="M27.7062 35.4402C27.5187 35.4402 27.309 35.4095 27.084 35.3515C26.547 35.2118 26.2027 34.9561 26.0595 34.5947C25.9333 34.2776 26.0015 33.9708 26.0765 33.7781C25.4032 32.8798 25.0776 32.2218 25.0247 31.6626C24.9702 31.0813 25.2174 30.7029 25.4577 30.3364C25.5805 30.1506 25.7066 29.958 25.7969 29.7295C25.9981 29.2233 25.7646 28.1681 25.6674 27.9993C25.6827 28.0249 25.3691 27.4862 25.485 27.4947H25.9112C26.6612 27.5459 27.2459 27.8408 27.6482 28.3743C28.2176 29.1295 28.2841 30.1966 28.2431 30.945C28.4085 30.8274 28.596 30.7114 28.7989 30.6023C29.416 30.2699 30.0313 30.0671 30.4899 30.079C30.9484 30.0909 30.6757 30.0875 30.7592 30.1029C31.1837 30.183 31.39 30.4046 31.4905 30.5751C31.7241 30.9791 31.5758 31.4427 31.557 31.4939L31.4053 31.932L31.0661 31.6251C31.0252 31.591 30.8837 31.4956 30.7592 31.4956C30.5598 31.4956 30.3893 31.8024 30.2904 32.336C30.1268 33.2224 29.7023 33.6997 29.375 33.9435C29.2097 34.0662 29.0529 34.1446 28.9267 34.1941C28.9267 34.4481 28.8688 34.7924 28.6318 35.0652C28.4818 35.2356 28.2022 35.4402 27.7113 35.4402H27.7062Z" fill="#FF931E"/>
<path d="M26.431 33.7406C26.431 33.7406 25.8276 34.7054 27.1589 35.0549C28.4903 35.4043 28.6744 34.5162 28.5994 33.9707C28.5994 33.9707 29.7006 33.8105 29.9819 32.2831C30.3006 30.5563 31.2604 31.3967 31.2604 31.3967C31.2604 31.3967 31.5331 30.65 30.6791 30.5085C29.825 30.367 28.0982 31.4359 27.7607 32.0223C27.7607 32.0223 28.3658 28.1595 25.8838 27.8032C25.9998 27.8135 26.3458 29.167 26.0765 29.8437C25.6179 30.9978 24.4587 31.1785 26.4293 33.7423H26.431V33.7406Z" fill="white"/>
<path d="M27.5084 33.7595C27.5084 33.7595 28.1818 34.1141 29.5745 33.8601C30.9672 33.6061 31.1854 33.9504 31.1854 33.9504L29.5745 34.213C29.5745 34.213 28.0283 34.5334 27.5084 33.7578V33.7595Z" fill="#FF931E"/>
<path d="M28.2635 30.5103L28.7033 30.6552L28.2124 31.008L28.2635 30.5103Z" fill="white"/>
<defs>
<linearGradient id="paint0_linear_5030_5111" x1="23.2161" y1="18.8677" x2="0.501701" y2="18.5193" gradientUnits="userSpaceOnUse">
<stop stop-color="#498E85"/>
<stop offset="1" stop-color="#32645F"/>
</linearGradient>
<linearGradient id="paint1_linear_5030_5111" x1="0.050049" y1="19.2182" x2="22.2926" y2="19.6766" gradientUnits="userSpaceOnUse">
<stop stop-color="#2F5D59"/>
<stop offset="1" stop-color="#3F8078"/>
</linearGradient>
</defs>
</svg>
