<svg width="37" height="37" viewBox="0 0 37 37" fill="none" xmlns="http://www.w3.org/2000/svg">
<path d="M18.3238 37C28.4437 37 36.6476 28.7173 36.6476 18.5C36.6476 8.28273 28.4437 0 18.3238 0C8.20382 0 -3.05176e-05 8.28273 -3.05176e-05 18.5C-3.05176e-05 28.7173 8.20382 37 18.3238 37Z" fill="#2C3C8A"/>
<path d="M15.9893 26.395L13.7353 25.8203L12.9054 29.1204L15.1594 29.6951L15.9893 26.395Z" fill="#664AED" stroke="#A6A6A6" stroke-width="0.156745"/>
<path d="M19.896 27.3867L17.642 26.812L16.8121 30.1121L19.0661 30.6868L19.896 27.3867Z" fill="#146AF4" stroke="#A6A6A6" stroke-width="0.156745"/>
<path d="M24.8832 7.58154L22.6292 7.00684L21.7992 10.3069L24.0533 10.8816L24.8832 7.58154Z" fill="#146AF4" stroke="#A6A6A6" stroke-width="0.156745"/>
<path d="M20.9823 6.57471L18.7282 6L17.8983 9.30004L20.1523 9.87482L20.9823 6.57471Z" fill="#664AED" stroke="#A6A6A6" stroke-width="0.156745"/>
<path d="M21.2107 26.7178L10 24.296L10.6732 22.0264L21.8839 24.4482C22.8456 24.6588 23.8073 24.2025 24.0271 23.442C24.247 22.6816 23.6562 21.8977 22.6945 21.6871L15.6878 20.1779L16.361 17.9082L23.3677 19.4174C25.8956 19.9673 27.4755 22.0498 26.8711 24.0504C26.2666 26.051 23.7249 27.256 21.197 26.7062L21.2107 26.7178Z" fill="#B9B9FC" stroke="#A6A6A6" stroke-width="0.156745"/>
<path d="M20.1523 9.88369L16.3495 8.91406L12.193 25.4422L15.9958 26.4118L20.1523 9.88369Z" fill="#664AED" stroke="#A6A6A6" stroke-width="0.156745"/>
<path d="M20.9248 19.2545L13.5723 17.4861L14.2788 14.8266L21.6312 16.595C22.6404 16.8418 23.6495 16.3072 23.8802 15.4162C24.1109 14.5251 23.491 13.6066 22.4818 13.3599L12.2172 10.8923L12.9236 8.23291L23.1882 10.7005C25.8408 11.3448 27.4988 13.7848 26.8645 16.129C26.2301 18.4731 23.563 19.885 20.9104 19.2407L20.9248 19.2545Z" fill="#9FF7EC" stroke="#A6A6A6" stroke-width="0.156745"/>
<path d="M20.1522 9.87734L16.3494 8.90771L15.5544 12.0685L19.3572 13.0382L20.1522 9.87734Z" fill="#664AED" stroke="#A6A6A6" stroke-width="0.156745"/>
<circle cx="18.5" cy="18.5" r="17.5" stroke="#1BE3C2" stroke-width="2"/>
</svg>
