<svg width="37" height="37" viewBox="0 0 37 37" xmlns="http://www.w3.org/2000/svg"><g xmlns="http://www.w3.org/2000/svg" width="37" height="37" fill="none" viewBox="0 0 37 37" transform="translate(0.22162162774317973, -0.06478377129580523) scale(0.74, 0.7254901960784313)"><rect width="50" height="50" x="-0.164" y="0.547" fill="url(#a)" rx="25"></rect><g fill="#fff" clip-path="url(#b)"><path stroke="#fff" stroke-width="0.625" d="M26.1 11.952a.52.52 0 0 1 .461.282l11.167 21.617a.52.52 0 0 1-.462.76h-3.472a.52.52 0 0 1-.459-.277l-8.479-15.903L16.27 34.29a.52.52 0 0 1-.457.273h-3.391a.52.52 0 0 1-.462-.762l11.237-21.569a.52.52 0 0 1 .462-.28z"></path><circle cx="24.682" cy="27.577" r="1.979"></circle><path d="m24.562 38.97-2.873-5.21a.24.24 0 0 1 .212-.358h5.79c.184 0 .3.199.21.36l-2.917 5.21a.241.241 0 0 1-.422-.001"></path></g><defs><radialGradient id="a" cx="0" cy="0" r="1" gradientTransform="rotate(64.407 2.558 11.259)scale(49.4335)" gradientUnits="userSpaceOnUse"><stop stop-color="#E9B0AD"></stop><stop offset="0.168" stop-color="#E18A86"></stop><stop offset="0.62" stop-color="#387EF9"></stop><stop offset="1" stop-color="#113B86"></stop></radialGradient><clipPath id="b"><path fill="#fff" d="M11.453 11.645h26.771v27.708h-26.77z"></path></clipPath></defs></g><circle cx="18.5" cy="18.5" r="17.5" stroke="#1BE3C2" stroke-width="2" fill="none"></circle></svg>