<svg width="400" height="400" viewBox="0 0 400 400" fill="none" xmlns="http://www.w3.org/2000/svg">
<path d="M373.101 268.3V131.701C373.101 112.009 362.606 93.8091 345.565 83.9218L228.188 15.8431C211.038 5.9006 189.91 5.9006 172.759 15.8431L55.4095 83.9218C38.3692 93.8091 27.8743 112.009 27.8743 131.701V268.3C27.8743 287.992 38.3692 306.192 55.4095 316.08L172.787 384.158C189.937 394.101 211.065 394.101 228.216 384.158L345.593 316.08C362.633 306.192 373.128 287.992 373.128 268.3H373.101Z" fill="#FFB01A" fill-opacity="0.1"/>
<path d="M365.101 131.701C365.101 114.866 356.127 99.2994 341.55 90.8413V90.8403L224.176 22.7632V22.7642C209.507 14.2606 191.442 14.2594 176.773 22.7622L176.774 22.7632L59.4241 90.8413C44.847 99.2995 35.8744 114.866 35.8743 131.701V268.3C35.8743 285.135 44.847 300.701 59.4241 309.16H59.4231L176.798 377.237C191.467 385.741 209.534 385.741 224.203 377.237L341.578 309.16L342.257 308.758C356.271 300.313 364.926 285.223 365.122 268.869C365.109 268.681 365.101 268.491 365.101 268.3V131.701ZM381.101 267.665C381.117 267.874 381.128 268.086 381.128 268.3C381.128 290.848 369.111 311.683 349.608 323H349.607L232.23 391.079L232.229 391.08C212.597 402.461 188.407 402.46 168.775 391.08L168.773 391.079L51.3958 323H51.3948C31.8914 311.683 19.8743 290.848 19.8743 268.3V131.701C19.8744 109.153 31.8915 88.3187 51.3948 77.0024V77.0015L168.744 8.92334L168.746 8.92236C188.072 -2.28091 211.814 -2.45636 231.278 8.39697L232.2 8.92236L232.202 8.92334L349.579 77.0015L349.58 77.0024C369.084 88.3188 381.101 109.153 381.101 131.701V267.665Z" fill="url(#paint0_linear_8762_493)"/>
<path d="M229.87 123.757C226.228 119.857 217.89 113.076 205.341 113.076C192.9 113.076 184.696 119.574 181.079 123.318C180.958 123.469 179.02 125.982 180.534 129.646L203.488 185.191C203.488 185.191 205.535 190.171 207.597 185.191L230.479 129.928C231.896 126.252 229.87 123.757 229.87 123.757Z" fill="url(#paint1_linear_8762_493)"/>
<path d="M168.864 127.655C163.535 127.476 152.851 128.586 143.978 137.472C135.181 146.283 133.968 156.687 134.054 161.896C134.075 162.088 134.478 165.238 138.136 166.756L193.586 189.777C193.586 189.777 198.549 191.849 196.491 186.868L173.652 131.587C172.058 127.985 168.864 127.655 168.864 127.655Z" fill="url(#paint2_linear_8762_493)"/>
<path d="M130.153 174.725C126.259 178.373 119.488 186.723 119.488 199.29C119.488 211.75 125.977 219.966 129.715 223.588C129.866 223.709 132.375 225.65 136.034 224.134L191.497 201.146C191.497 201.146 196.47 199.096 191.497 197.031L136.315 174.115C132.644 172.697 130.153 174.725 130.153 174.725Z" fill="url(#paint3_linear_8762_493)"/>
<path d="M134.064 235.578C133.886 240.916 134.994 251.615 143.867 260.501C152.664 269.311 163.053 270.526 168.254 270.44C168.446 270.418 171.592 270.015 173.108 266.352L196.095 210.821C196.095 210.821 198.164 205.85 193.19 207.911L137.99 230.783C134.393 232.379 134.064 235.578 134.064 235.578Z" fill="url(#paint4_linear_8762_493)"/>
<path d="M181.028 274.325C184.671 278.225 193.009 285.006 205.557 285.006C217.998 285.006 226.202 278.507 229.819 274.764C229.94 274.613 231.878 272.1 230.364 268.436L207.41 212.891C207.41 212.891 205.363 207.911 203.301 212.891L180.419 268.154C179.003 271.829 181.028 274.325 181.028 274.325Z" fill="url(#paint5_linear_8762_493)"/>
<path d="M241.82 270.427C247.15 270.605 257.833 269.496 266.706 260.609C275.504 251.799 276.716 241.395 276.631 236.186C276.609 235.993 276.206 232.844 272.548 231.325L217.099 208.304C217.099 208.304 212.135 206.232 214.194 211.214L237.032 266.495C238.627 270.096 241.82 270.427 241.82 270.427Z" fill="url(#paint6_linear_8762_493)"/>
<path d="M280.514 223.561C284.408 219.913 291.179 211.563 291.179 198.996C291.179 186.537 284.69 178.321 280.952 174.698C280.801 174.577 278.292 172.636 274.633 174.152L219.17 197.14C219.17 197.14 214.197 199.19 219.17 201.255L274.352 224.171C278.022 225.589 280.514 223.561 280.514 223.561Z" fill="url(#paint7_linear_8762_493)"/>
<path d="M276.619 162.504C276.797 157.166 275.689 146.467 266.815 137.581C258.018 128.77 247.629 127.556 242.428 127.642C242.236 127.663 239.091 128.067 237.574 131.73L214.587 187.261C214.587 187.261 212.518 192.232 217.493 190.171L272.692 167.299C276.289 165.702 276.619 162.504 276.619 162.504Z" fill="url(#paint8_linear_8762_493)"/>
<path d="M244.499 306.776C246.252 311.6 243.775 316.971 238.84 318.36C223.081 322.797 206.569 324.068 190.261 322.062C170.875 319.679 152.328 312.734 136.136 301.796C119.944 290.858 106.566 276.238 97.0974 259.131C87.6285 242.023 82.3369 222.914 81.6552 203.366C80.9736 183.818 84.9213 164.386 93.1756 146.659C101.43 128.932 113.756 113.412 129.147 101.37C144.538 89.3278 162.556 81.1044 181.728 77.3722C197.857 74.2324 214.418 74.3462 230.447 77.6714C235.467 78.7128 238.312 83.8971 236.899 88.8322C235.486 93.7674 230.35 96.5777 225.316 95.603C212.118 93.047 198.523 93.0427 185.271 95.6225C168.974 98.7948 153.659 105.785 140.577 116.021C127.494 126.257 117.017 139.448 110.001 154.516C102.985 169.584 99.6291 186.102 100.208 202.717C100.788 219.333 105.286 235.576 113.334 250.117C121.383 264.658 132.754 277.086 146.517 286.383C160.28 295.68 176.045 301.583 192.523 303.609C205.923 305.257 219.484 304.303 232.473 300.831C237.426 299.507 242.745 301.952 244.499 306.776Z" fill="url(#paint9_linear_8762_493)"/>
<defs>
<linearGradient id="paint0_linear_8762_493" x1="27.8743" y1="200.001" x2="373.33" y2="202.517" gradientUnits="userSpaceOnUse">
<stop stop-color="#FFAA15"/>
<stop offset="1" stop-color="#FFD534"/>
</linearGradient>
<linearGradient id="paint1_linear_8762_493" x1="81.5798" y1="199.041" x2="291.303" y2="200.475" gradientUnits="userSpaceOnUse">
<stop stop-color="#FFAA15"/>
<stop offset="1" stop-color="#FFD534"/>
</linearGradient>
<linearGradient id="paint2_linear_8762_493" x1="81.5798" y1="199.041" x2="291.303" y2="200.475" gradientUnits="userSpaceOnUse">
<stop stop-color="#FFAA15"/>
<stop offset="1" stop-color="#FFD534"/>
</linearGradient>
<linearGradient id="paint3_linear_8762_493" x1="81.5798" y1="199.041" x2="291.303" y2="200.475" gradientUnits="userSpaceOnUse">
<stop stop-color="#FFAA15"/>
<stop offset="1" stop-color="#FFD534"/>
</linearGradient>
<linearGradient id="paint4_linear_8762_493" x1="81.5798" y1="199.041" x2="291.303" y2="200.475" gradientUnits="userSpaceOnUse">
<stop stop-color="#FFAA15"/>
<stop offset="1" stop-color="#FFD534"/>
</linearGradient>
<linearGradient id="paint5_linear_8762_493" x1="81.5798" y1="199.041" x2="291.303" y2="200.475" gradientUnits="userSpaceOnUse">
<stop stop-color="#FFAA15"/>
<stop offset="1" stop-color="#FFD534"/>
</linearGradient>
<linearGradient id="paint6_linear_8762_493" x1="81.5798" y1="199.041" x2="291.303" y2="200.475" gradientUnits="userSpaceOnUse">
<stop stop-color="#FFAA15"/>
<stop offset="1" stop-color="#FFD534"/>
</linearGradient>
<linearGradient id="paint7_linear_8762_493" x1="81.5798" y1="199.041" x2="291.303" y2="200.475" gradientUnits="userSpaceOnUse">
<stop stop-color="#FFAA15"/>
<stop offset="1" stop-color="#FFD534"/>
</linearGradient>
<linearGradient id="paint8_linear_8762_493" x1="81.5798" y1="199.041" x2="291.303" y2="200.475" gradientUnits="userSpaceOnUse">
<stop stop-color="#FFAA15"/>
<stop offset="1" stop-color="#FFD534"/>
</linearGradient>
<linearGradient id="paint9_linear_8762_493" x1="81.5798" y1="199.041" x2="291.303" y2="200.475" gradientUnits="userSpaceOnUse">
<stop stop-color="#FFAA15"/>
<stop offset="1" stop-color="#FFD534"/>
</linearGradient>
</defs>
</svg>
