<svg width="37" height="37" viewBox="0 0 37 37" xmlns="http://www.w3.org/2000/svg"><g xmlns="http://www.w3.org/2000/svg" width="37" height="37" fill="none" viewBox="0 0 37 37" transform="translate(0, 0) scale(0.9024390243902439, 0.925)"><rect width="40" height="40" x="0.5" fill="url(#a)" rx="20"></rect><rect width="40" height="40" x="0.5" fill="url(#b)" rx="20"></rect><rect width="40" height="40" x="0.5" fill="url(#c)" rx="20"></rect><path fill="#F9F9F9" fill-rule="evenodd" stroke="#fff" stroke-width="0.5" d="M14.153 10.637a.35.35 0 0 0-.282.264c-.037.148-.037 2.565.001 2.696.03.103.093.173.209.231l.08.04h7.572l.094-.044c.114-.055.135-.077.188-.203l.04-.098v-1.278c0-1.396.007-1.287-.083-1.464-.025-.05-.165-.135-.243-.148-.08-.013-7.495-.009-7.576.004Zm-.049 7.898a.33.33 0 0 0-.23.232c-.045.16-.041 10.442.003 10.588.036.116.07.159.184.224l.08.046H27.56l.057-.034c.222-.133.21-.042.207-1.627-.003-1.523.012-1.41-.198-1.531l-.078-.046-5.228-.008c-4.624-.007-5.23-.01-5.243-.031-.01-.015-.013-.876-.011-2.283l.004-2.26.044-.033.045-.033 3.777-.008c3.485-.007 3.78-.01 3.816-.034a.35.35 0 0 0 .162-.206c.043-.145.039-2.617-.004-2.74a.38.38 0 0 0-.174-.208c-.051-.023-10.528-.031-10.63-.008Z" clip-rule="evenodd"></path><defs><radialGradient id="a" cx="0" cy="0" r="1" gradientTransform="rotate(82.2 10.953 8.361)scale(46.0511)" gradientUnits="userSpaceOnUse"><stop stop-color="#D9326F"></stop><stop offset="1" stop-color="#3A34DD"></stop></radialGradient><radialGradient id="b" cx="0" cy="0" r="1" gradientTransform="rotate(86.892 18.3 3.197)scale(55.3314)" gradientUnits="userSpaceOnUse"><stop stop-color="#FE4D8B"></stop><stop offset="1" stop-color="#483FFC"></stop></radialGradient><radialGradient id="c" cx="0" cy="0" r="1" gradientTransform="matrix(0 26 -26 0 20.5 0)" gradientUnits="userSpaceOnUse"><stop stop-color="#628CBF"></stop><stop offset="1" stop-color="#1D507D"></stop></radialGradient></defs></g><circle cx="18.5" cy="18.5" r="17.5" stroke="#1BE3C2" stroke-width="2" fill="none"></circle></svg>