<svg width="24" height="24" viewBox="0 0 24 24" fill="none" xmlns="http://www.w3.org/2000/svg">
<g clip-path="url(#clip0_1379_89)">
<path d="M12 24C18.6274 24 24 18.6274 24 12C24 5.37258 18.6274 0 12 0C5.37258 0 0 5.37258 0 12C0 18.6274 5.37258 24 12 24Z" fill="#010326" style="fill:#010326;fill:color(display-p3 0.0039 0.0118 0.1490);fill-opacity:1;"/>
<path d="M6.36722 7.57519V9.08128C6.36722 9.1225 6.40064 9.15592 6.44186 9.15592H12.9141C12.9553 9.15592 12.9887 9.18934 12.9887 9.23056V10.8113H14.5694C14.6107 10.8113 14.6441 10.8447 14.6441 10.8859V17.3581C14.6441 17.3994 14.6775 17.4328 14.7187 17.4328H16.2248C16.266 17.4328 16.2994 17.3994 16.2994 17.3581V7.57519C16.2994 7.53397 16.266 7.50055 16.2248 7.50055H6.44186C6.40064 7.50055 6.36722 7.53397 6.36722 7.57519Z" fill="#F9F9F9" style="fill:#F9F9F9;fill:color(display-p3 0.9765 0.9765 0.9765);fill-opacity:1;"/>
<path d="M8.0226 10.8859V12.392C8.0226 12.4332 8.05602 12.4667 8.09724 12.4667H9.60333C9.64455 12.4667 9.67797 12.5001 9.67797 12.5413V14.122H11.2587C11.2999 14.122 11.3333 14.1555 11.3333 14.1967V15.7028C11.3333 15.744 11.3668 15.7774 11.408 15.7774H12.9141C12.9553 15.7774 12.9887 15.744 12.9887 15.7028V10.8113H8.09724C8.05602 10.8113 8.0226 10.8447 8.0226 10.8859Z" fill="#F9F9F9" style="fill:#F9F9F9;fill:color(display-p3 0.9765 0.9765 0.9765);fill-opacity:1;"/>
<path d="M8.09724 15.7774H9.60333C9.64455 15.7774 9.67797 15.744 9.67797 15.7028V14.122H8.09724C8.05602 14.122 8.0226 14.1555 8.0226 14.1967V15.7028C8.0226 15.744 8.05602 15.7774 8.09724 15.7774Z" fill="#F9F9F9" style="fill:#F9F9F9;fill:color(display-p3 0.9765 0.9765 0.9765);fill-opacity:1;"/>
<path d="M12 2.42485C13.2929 2.42485 14.5468 2.67792 15.7269 3.17705C16.867 3.65928 17.8911 4.34977 18.7707 5.22934C19.6502 6.10891 20.3407 7.13298 20.823 8.27311C21.3221 9.45318 21.5752 10.7071 21.5752 12C21.5752 13.2929 21.3221 14.5468 20.823 15.7269C20.3407 16.867 19.6502 17.8911 18.7707 18.7707C17.8911 19.6502 16.867 20.3407 15.7269 20.823C14.5468 21.3221 13.2929 21.5752 12 21.5752C10.7071 21.5752 9.45318 21.3221 8.27311 20.823C7.13298 20.3407 6.10891 19.6502 5.22934 18.7707C4.34977 17.8911 3.65928 16.867 3.17705 15.7269C2.67792 14.5468 2.42485 13.2929 2.42485 12C2.42485 10.7071 2.67792 9.45318 3.17705 8.27311C3.65928 7.13298 4.34977 6.10891 5.22934 5.22934C6.10891 4.34977 7.13298 3.65928 8.27311 3.17705C9.45318 2.67792 10.7071 2.42485 12 2.42485ZM12 1.79492C6.36389 1.79492 1.79492 6.36389 1.79492 12C1.79492 17.6361 6.36389 22.2051 12 22.2051C17.6361 22.2051 22.2051 17.6361 22.2051 12C22.2051 6.36389 17.6361 1.79492 12 1.79492Z" fill="#F9F9F9" style="fill:#F9F9F9;fill:color(display-p3 0.9765 0.9765 0.9765);fill-opacity:1;"/>
</g>
<defs>
<clipPath id="clip0_1379_89">
<rect width="24" height="24" fill="white" style="fill:white;fill-opacity:1;"/>
</clipPath>
</defs>
</svg>
