<svg xmlns="http://www.w3.org/2000/svg" width="37" height="37" fill="none"><g xmlns="http://www.w3.org/2000/svg"><path fill="#00ADE6" d="M18.5 37C28.752 37 37 28.752 37 18.5S28.752 0 18.5 0A18.456 18.456 0 0 0 0 18.5C0 28.752 8.248 37 18.5 37"/><path fill="#fff" d="M23.591 21.43c0-2.697-1.618-3.622-4.856-4.007-2.312-.309-2.775-.925-2.775-2.005s.77-1.773 2.313-1.773c1.387 0 2.158.463 2.543 1.62a.58.58 0 0 0 .54.384h1.233c.309 0 .54-.23.54-.539v-.077a3.85 3.85 0 0 0-3.469-3.16v-1.85c0-.309-.231-.54-.617-.617h-1.156c-.308 0-.54.231-.617.617v1.772c-2.312.309-3.777 1.85-3.777 3.778 0 2.543 1.542 3.545 4.78 3.93 2.158.386 2.852.849 2.852 2.082s-1.08 2.081-2.544 2.081c-2.004 0-2.698-.848-2.93-2.004-.076-.308-.308-.463-.539-.463h-1.31a.527.527 0 0 0-.54.54v.077c.308 1.927 1.542 3.315 4.086 3.7v1.85c0 .308.23.54.616.617h1.156c.309 0 .54-.231.617-.617v-1.85c2.313-.385 3.854-2.004 3.854-4.085"/><path fill="#fff" d="M14.572 29.52c-6.012-2.158-9.096-8.864-6.86-14.8 1.156-3.237 3.7-5.704 6.86-6.86.309-.154.463-.385.463-.77V6.01c0-.308-.154-.54-.463-.616-.077 0-.231 0-.308.077C6.94 7.783 2.933 15.569 5.245 22.89a13.87 13.87 0 0 0 9.019 9.02c.308.153.617 0 .694-.31.077-.076.077-.153.077-.307v-1.08c0-.23-.232-.54-.463-.693m8.171-24.05c-.308-.154-.617 0-.694.309-.077.077-.077.154-.077.308v1.08c0 .308.231.616.463.77 6.012 2.159 9.096 8.865 6.86 14.8-1.156 3.238-3.7 5.704-6.86 6.86-.309.155-.463.386-.463.772v1.079c0 .308.154.54.463.616.077 0 .23 0 .308-.077 7.323-2.312 11.331-10.098 9.019-17.42-1.388-4.394-4.78-7.709-9.019-9.096"/></g><circle cx="18.5" cy="18.5" r="17.5" stroke="#1BE3C2" stroke-width="2"/></svg>