<svg width="37" height="37" viewBox="0 0 37 37" xmlns="http://www.w3.org/2000/svg"><g xmlns="http://www.w3.org/2000/svg" fill="none" viewBox="0 0 37 37" width="37" height="37" transform="translate(0.013838665684584105, -0.05598089444829552) scale(2.312517367433804, 2.3125045485884015)"><path fill="#00c260" d="M15.76 9.935A7.999 7.999 0 1 1 .24 6.063 7.999 7.999 0 0 1 15.76 9.935"></path><path fill="#000" d="M7.847 3v3.77a.175.175 0 0 1-.3.124L5.775 5.161l.744-1.934A.35.35 0 0 1 6.847 3zM7.847 8.135v2.118c0 .142-.167.21-.27.116L4.83 7.776l.808-2.097 2.005 1.964a.68.68 0 0 1 .205.492M7.847 11.55v.95H3.585a.35.35 0 0 1-.325-.475l1.428-3.723 2.962 2.799a.6.6 0 0 1 .197.449M8.305 3v3.77c0 .158.188.235.299.124l1.77-1.733-.74-1.934A.36.36 0 0 0 9.304 3zM8.305 8.135v2.118c0 .142.166.21.269.116l2.749-2.593-.808-2.097L8.51 7.643a.68.68 0 0 0-.21.492zM8.305 11.55v.95h4.257a.35.35 0 0 0 .33-.475L11.46 8.302l-2.963 2.799a.61.61 0 0 0-.192.449"></path></g><circle cx="18.5" cy="18.5" r="17.5" stroke="#1BE3C2" stroke-width="2" fill="none"></circle></svg>