<svg width="37" height="37" viewBox="0 0 37 37" xmlns="http://www.w3.org/2000/svg"><g xmlns="http://www.w3.org/2000/svg" width="37" height="37" fill="none" viewBox="0 0 37 37" transform="translate(0.34905412712612666, 0) scale(0.5873015873015873, 0.578125)"><rect width="60" height="60" x="1.295" y="2" fill="url(#a)" rx="30"></rect><path fill="#fff" d="M17.045 17.866h5.481v5.481h-5.481zM24.608 17.866h5.481v5.481h-5.481zM32.172 17.866h5.481v5.481h-5.481zM39.735 17.866h5.481v5.481h-5.481zM17.264 25.43h5.481v5.481h-5.481zM17.264 32.993h5.481v5.481h-5.481zM24.937 25.759h12.715v12.715H24.937zM39.845 25.43h5.481v5.481h-5.481zM39.845 32.993h5.481v5.481h-5.481zM17.045 40.557h5.481v5.481h-5.481zM24.608 40.557h5.481v5.481h-5.481zM32.172 40.557h5.481v5.481h-5.481zM39.735 40.557h5.481v5.481h-5.481z"></path><defs><radialGradient id="a" cx="0" cy="0" r="1" gradientTransform="rotate(61.259 2.201 15.998)scale(58.879)" gradientUnits="userSpaceOnUse"><stop stop-color="#FFE7BD"></stop><stop offset="0.337" stop-color="#D8DC60"></stop><stop offset="0.62" stop-color="#80B05F"></stop><stop offset="1" stop-color="#2F4F2F"></stop></radialGradient></defs></g><circle cx="18.5" cy="18.5" r="17.5" stroke="#1BE3C2" stroke-width="2" fill="none"></circle></svg>