<svg width="37" height="37" viewBox="0 0 37 37" fill="none" xmlns="http://www.w3.org/2000/svg">
<g clip-path="url(#clip0_6496_8935)">
<mask id="mask0_6496_8935" style="mask-type:luminance" maskUnits="userSpaceOnUse" x="2" y="2" width="33" height="33">
<path d="M35 2H2V35H35V2Z" fill="white"/>
</mask>
<g mask="url(#mask0_6496_8935)">
<path d="M18.5 35C27.6127 35 35 27.6127 35 18.5C35 9.38731 27.6127 2 18.5 2C9.38731 2 2 9.38731 2 18.5C2 27.6127 9.38731 35 18.5 35Z" fill="#1D1D1F"/>
<path d="M26.368 29.9435C25.4872 29.9435 24.77 29.2269 24.77 28.3468C24.77 27.4667 25.4872 26.75 26.368 26.75C27.2488 26.75 27.966 27.4667 27.966 28.3468C27.966 29.2269 27.2488 29.9435 26.368 29.9435Z" fill="#F96D30"/>
<path d="M23.8308 21.1414C23.5741 20.4158 23.1505 19.7692 22.5474 19.1983C21.9443 18.6274 21.2656 18.0912 20.4988 17.5866C20.336 17.4914 20.1889 17.3867 20.0386 17.2946L21.0702 13.2297C21.0702 13.2297 21.0953 13.2361 21.0921 13.2488C21.3827 13.5247 21.5819 13.8448 21.7024 14.2124C21.7703 14.4183 21.81 14.6305 21.7962 14.8427C21.7915 15.1245 21.9942 15.3782 22.2703 15.4483L24.6294 16.047C25.0059 16.1425 25.3938 15.877 25.4275 15.4812C25.4945 14.7434 25.4168 14.0497 25.1817 13.397C24.8662 12.5352 24.3331 11.7934 23.5795 11.1842C23.0791 10.7877 22.4934 10.4638 21.8257 10.2L22.4781 7.62939C22.552 7.33813 22.3747 7.03704 22.086 6.96378L21.1198 6.71859C20.8312 6.64533 20.5317 6.82541 20.4578 7.11667L19.8151 9.64932C19.0554 9.53741 18.3328 9.54273 17.6347 9.66209C16.6724 9.82224 15.8534 10.2074 15.1933 10.8082C14.5208 11.4058 14.0606 12.2191 13.8003 13.2448C13.54 14.2705 13.5896 15.4962 14.0965 16.3932C14.6003 17.3028 15.4596 18.1274 16.6679 18.8923C16.8964 19.0446 17.1281 19.1843 17.344 19.3335L16.1678 23.9682C16.0771 23.9048 15.9989 23.8445 15.9239 23.7715C15.5802 23.4417 15.331 23.055 15.2016 22.6178C15.1121 22.3389 15.0792 22.0475 15.0903 21.7404C15.1015 21.4332 14.9052 21.1542 14.6166 21.0809L12.3327 20.5014C11.9562 20.4058 11.5841 20.6618 11.5379 21.0544C11.4387 21.9189 11.5158 22.7202 11.7943 23.4648C12.144 24.4028 12.7301 25.1985 13.5778 25.8584C14.1345 26.2962 14.7703 26.6328 15.4725 26.9188L14.9004 29.1729C14.8265 29.4641 15.0039 29.7652 15.2925 29.8385L16.2587 30.0837C16.5473 30.1569 16.8468 29.9769 16.9207 29.6856L17.4799 27.4822C18.4278 27.6419 19.2855 27.6304 20.0689 27.4383C21.0662 27.1927 21.8855 26.7537 22.5301 26.1085C23.1747 25.4634 23.6095 24.6976 23.8376 23.7985C24.0658 22.8994 24.106 21.8987 23.8494 21.1731L23.8308 21.1414ZM18.055 15.8477C17.7519 15.5686 17.5462 15.2738 17.4255 14.9601C17.3047 14.6464 17.2879 14.2917 17.3907 13.8864C17.4936 13.4812 17.6775 13.1774 17.9332 12.9593C18.1889 12.7411 18.5039 12.6054 18.8623 12.5616C18.944 12.5553 19.0289 12.5365 19.12 12.5461L18.2426 16.0031C18.1895 15.9492 18.1207 15.9048 18.0676 15.8509L18.055 15.8477ZM19.6638 24.0871C19.3892 24.3275 19.0459 24.4695 18.6528 24.5449C18.5112 24.5764 18.351 24.5762 18.1908 24.5759L19.1966 20.6124C19.2842 20.6885 19.3717 20.7646 19.4467 20.8376C19.7904 21.1674 20.0366 21.5129 20.1821 21.8869C20.3277 22.2608 20.3442 22.6693 20.2317 23.1125C20.1192 23.5557 19.9353 23.8595 19.6513 24.084L19.6638 24.0871Z" fill="#F1F1F1"/>
</g>
</g>
<circle cx="18.5" cy="18.5" r="17.5" stroke="#1BE3C2" stroke-width="2"/>
<defs>
<clipPath id="clip0_6496_8935">
<rect width="33" height="33" fill="white" transform="translate(2 2)"/>
</clipPath>
</defs>
</svg>
